<svg width="600" height="240" viewBox="0 0 600 240" fill="none" xmlns="http://www.w3.org/2000/svg">
<rect width="600" height="240" rx="16" fill="#101510"/>
<rect x="82" y="113" width="86" height="25" rx="12.5" fill="#394B3A"/>
<path d="M97.0568 130V121.273H98.1136V129.062H102.17V130H97.0568ZM105.597 130.153C105.182 130.153 104.805 130.075 104.467 129.919C104.129 129.76 103.861 129.531 103.662 129.233C103.463 128.932 103.364 128.568 103.364 128.142C103.364 127.767 103.438 127.463 103.585 127.23C103.733 126.994 103.93 126.81 104.178 126.676C104.425 126.543 104.697 126.443 104.996 126.378C105.297 126.31 105.599 126.256 105.903 126.216C106.301 126.165 106.624 126.126 106.871 126.101C107.121 126.072 107.303 126.026 107.416 125.96C107.533 125.895 107.591 125.781 107.591 125.619V125.585C107.591 125.165 107.476 124.838 107.246 124.605C107.018 124.372 106.673 124.256 106.21 124.256C105.73 124.256 105.354 124.361 105.081 124.571C104.808 124.781 104.616 125.006 104.506 125.244L103.551 124.903C103.722 124.506 103.949 124.196 104.233 123.974C104.52 123.75 104.832 123.594 105.17 123.506C105.511 123.415 105.847 123.369 106.176 123.369C106.386 123.369 106.628 123.395 106.901 123.446C107.176 123.494 107.442 123.595 107.697 123.749C107.956 123.902 108.17 124.134 108.341 124.443C108.511 124.753 108.597 125.168 108.597 125.688V130H107.591V129.114H107.54C107.472 129.256 107.358 129.408 107.199 129.57C107.04 129.732 106.828 129.869 106.564 129.983C106.3 130.097 105.977 130.153 105.597 130.153ZM105.75 129.25C106.148 129.25 106.483 129.172 106.756 129.016C107.031 128.859 107.239 128.658 107.378 128.411C107.52 128.163 107.591 127.903 107.591 127.631V126.71C107.548 126.761 107.455 126.808 107.31 126.851C107.168 126.891 107.003 126.926 106.815 126.957C106.631 126.986 106.45 127.011 106.274 127.034C106.101 127.054 105.96 127.071 105.852 127.085C105.591 127.119 105.347 127.175 105.119 127.251C104.895 127.325 104.713 127.437 104.574 127.588C104.438 127.736 104.369 127.937 104.369 128.193C104.369 128.543 104.499 128.807 104.757 128.986C105.018 129.162 105.349 129.25 105.75 129.25ZM111.915 130L109.921 123.455H110.978L112.392 128.466H112.461L113.858 123.455H114.932L116.313 128.449H116.381L117.796 123.455H118.853L116.858 130H115.87L114.438 124.972H114.336L112.904 130H111.915ZM121.188 126.062V130H120.182V123.455H121.154V124.477H121.239C121.392 124.145 121.625 123.878 121.938 123.676C122.25 123.472 122.654 123.369 123.148 123.369C123.591 123.369 123.979 123.46 124.311 123.642C124.644 123.821 124.902 124.094 125.087 124.46C125.272 124.824 125.364 125.284 125.364 125.841V130H124.358V125.909C124.358 125.395 124.225 124.994 123.958 124.707C123.691 124.418 123.324 124.273 122.858 124.273C122.537 124.273 122.25 124.342 121.998 124.482C121.748 124.621 121.55 124.824 121.405 125.091C121.26 125.358 121.188 125.682 121.188 126.062ZM129.861 130.136C129.247 130.136 128.719 129.991 128.276 129.702C127.832 129.412 127.491 129.013 127.253 128.504C127.014 127.996 126.895 127.415 126.895 126.761C126.895 126.097 127.017 125.51 127.261 125.001C127.509 124.49 127.852 124.091 128.293 123.804C128.736 123.514 129.253 123.369 129.844 123.369C130.304 123.369 130.719 123.455 131.088 123.625C131.457 123.795 131.76 124.034 131.996 124.341C132.232 124.648 132.378 125.006 132.435 125.415H131.429C131.352 125.116 131.182 124.852 130.918 124.622C130.656 124.389 130.304 124.273 129.861 124.273C129.469 124.273 129.125 124.375 128.83 124.58C128.537 124.781 128.308 125.067 128.143 125.436C127.982 125.803 127.901 126.233 127.901 126.727C127.901 127.233 127.98 127.673 128.139 128.048C128.301 128.423 128.528 128.714 128.821 128.922C129.116 129.129 129.463 129.233 129.861 129.233C130.122 129.233 130.359 129.188 130.572 129.097C130.786 129.006 130.966 128.875 131.114 128.705C131.261 128.534 131.366 128.33 131.429 128.091H132.435C132.378 128.477 132.237 128.825 132.013 129.135C131.791 129.442 131.497 129.686 131.131 129.868C130.767 130.047 130.344 130.136 129.861 130.136ZM134.911 126.062V130H133.905V121.273H134.911V124.477H134.996C135.149 124.139 135.379 123.871 135.686 123.672C135.996 123.47 136.408 123.369 136.922 123.369C137.368 123.369 137.759 123.459 138.094 123.638C138.429 123.814 138.689 124.085 138.874 124.452C139.061 124.815 139.155 125.278 139.155 125.841V130H138.149V125.909C138.149 125.389 138.014 124.987 137.744 124.703C137.477 124.416 137.107 124.273 136.632 124.273C136.303 124.273 136.007 124.342 135.746 124.482C135.487 124.621 135.283 124.824 135.132 125.091C134.984 125.358 134.911 125.682 134.911 126.062ZM142.921 130.153C142.506 130.153 142.13 130.075 141.792 129.919C141.453 129.76 141.185 129.531 140.986 129.233C140.787 128.932 140.688 128.568 140.688 128.142C140.688 127.767 140.762 127.463 140.909 127.23C141.057 126.994 141.255 126.81 141.502 126.676C141.749 126.543 142.022 126.443 142.32 126.378C142.621 126.31 142.924 126.256 143.228 126.216C143.625 126.165 143.948 126.126 144.195 126.101C144.445 126.072 144.627 126.026 144.74 125.96C144.857 125.895 144.915 125.781 144.915 125.619V125.585C144.915 125.165 144.8 124.838 144.57 124.605C144.343 124.372 143.998 124.256 143.534 124.256C143.054 124.256 142.678 124.361 142.405 124.571C142.132 124.781 141.941 125.006 141.83 125.244L140.875 124.903C141.046 124.506 141.273 124.196 141.557 123.974C141.844 123.75 142.157 123.594 142.495 123.506C142.836 123.415 143.171 123.369 143.5 123.369C143.711 123.369 143.952 123.395 144.225 123.446C144.5 123.494 144.766 123.595 145.022 123.749C145.28 123.902 145.495 124.134 145.665 124.443C145.836 124.753 145.921 125.168 145.921 125.688V130H144.915V129.114H144.864C144.796 129.256 144.682 129.408 144.523 129.57C144.364 129.732 144.152 129.869 143.888 129.983C143.624 130.097 143.301 130.153 142.921 130.153ZM143.074 129.25C143.472 129.25 143.807 129.172 144.08 129.016C144.355 128.859 144.563 128.658 144.702 128.411C144.844 128.163 144.915 127.903 144.915 127.631V126.71C144.873 126.761 144.779 126.808 144.634 126.851C144.492 126.891 144.327 126.926 144.14 126.957C143.955 126.986 143.775 127.011 143.598 127.034C143.425 127.054 143.284 127.071 143.176 127.085C142.915 127.119 142.671 127.175 142.444 127.251C142.219 127.325 142.037 127.437 141.898 127.588C141.762 127.736 141.694 127.937 141.694 128.193C141.694 128.543 141.823 128.807 142.081 128.986C142.343 129.162 142.674 129.25 143.074 129.25ZM147.756 130V123.455H148.762V130H147.756ZM148.268 122.364C148.072 122.364 147.903 122.297 147.761 122.163C147.621 122.03 147.552 121.869 147.552 121.682C147.552 121.494 147.621 121.334 147.761 121.2C147.903 121.067 148.072 121 148.268 121C148.464 121 148.631 121.067 148.771 121.2C148.913 121.334 148.984 121.494 148.984 121.682C148.984 121.869 148.913 122.03 148.771 122.163C148.631 122.297 148.464 122.364 148.268 122.364ZM150.604 130V123.455H151.576V124.443H151.644C151.763 124.119 151.979 123.857 152.292 123.655C152.604 123.453 152.956 123.352 153.348 123.352C153.422 123.352 153.515 123.354 153.625 123.357C153.736 123.359 153.82 123.364 153.877 123.369V124.392C153.843 124.384 153.765 124.371 153.642 124.354C153.523 124.334 153.397 124.324 153.263 124.324C152.945 124.324 152.661 124.391 152.411 124.524C152.164 124.655 151.968 124.837 151.823 125.07C151.681 125.3 151.61 125.562 151.61 125.858V130H150.604Z" fill="#D3E8D1"/>
<rect x="179" y="113" width="25" height="25" rx="12.5" fill="#1B5129"/>
<path d="M188.641 121V129H187.672V122.016H187.625L185.672 123.312V122.328L187.672 121H188.641ZM193.598 129.109C193.27 129.104 192.941 129.042 192.613 128.922C192.285 128.802 191.986 128.6 191.715 128.316C191.444 128.03 191.227 127.643 191.063 127.156C190.898 126.667 190.816 126.052 190.816 125.312C190.816 124.604 190.883 123.977 191.016 123.43C191.148 122.88 191.341 122.418 191.594 122.043C191.846 121.665 192.151 121.379 192.508 121.184C192.867 120.988 193.272 120.891 193.723 120.891C194.171 120.891 194.569 120.98 194.918 121.16C195.27 121.337 195.556 121.585 195.777 121.902C195.999 122.22 196.142 122.586 196.207 123H195.254C195.165 122.641 194.993 122.342 194.738 122.105C194.483 121.868 194.145 121.75 193.723 121.75C193.103 121.75 192.615 122.02 192.258 122.559C191.904 123.098 191.725 123.854 191.723 124.828H191.785C191.931 124.607 192.104 124.418 192.305 124.262C192.508 124.103 192.732 123.98 192.977 123.895C193.221 123.809 193.48 123.766 193.754 123.766C194.212 123.766 194.632 123.88 195.012 124.109C195.392 124.336 195.697 124.65 195.926 125.051C196.155 125.449 196.27 125.906 196.27 126.422C196.27 126.917 196.159 127.37 195.938 127.781C195.716 128.19 195.405 128.516 195.004 128.758C194.605 128.997 194.137 129.115 193.598 129.109ZM193.598 128.25C193.926 128.25 194.22 128.168 194.48 128.004C194.743 127.84 194.951 127.62 195.102 127.344C195.255 127.068 195.332 126.76 195.332 126.422C195.332 126.091 195.258 125.79 195.109 125.52C194.964 125.246 194.762 125.029 194.504 124.867C194.249 124.706 193.957 124.625 193.629 124.625C193.382 124.625 193.151 124.674 192.937 124.773C192.724 124.87 192.536 125.003 192.375 125.172C192.216 125.341 192.091 125.535 192 125.754C191.909 125.97 191.863 126.198 191.863 126.437C191.863 126.755 191.937 127.052 192.086 127.328C192.237 127.604 192.443 127.827 192.703 127.996C192.966 128.165 193.264 128.25 193.598 128.25Z" fill="#B6F1BB"/>
<rect x="215" y="113" width="25" height="25" rx="12.5" fill="#1B5129"/>
<path d="M228.972 121.273V130H227.915V122.381H227.864L225.733 123.795V122.722L227.915 121.273H228.972Z" fill="#B6F1BB"/>
<rect x="251" y="113" width="49" height="25" rx="12.5" fill="#394B3A"/>
<path d="M263.057 130V121.273H266.108C266.716 121.273 267.217 121.378 267.612 121.588C268.007 121.795 268.301 122.075 268.494 122.428C268.688 122.777 268.784 123.165 268.784 123.591C268.784 123.966 268.717 124.276 268.584 124.52C268.453 124.764 268.28 124.957 268.064 125.099C267.851 125.241 267.619 125.347 267.369 125.415V125.5C267.636 125.517 267.905 125.611 268.175 125.781C268.445 125.952 268.67 126.196 268.852 126.514C269.034 126.832 269.125 127.222 269.125 127.682C269.125 128.119 269.026 128.513 268.827 128.862C268.628 129.212 268.314 129.489 267.885 129.693C267.456 129.898 266.898 130 266.21 130H263.057ZM264.114 129.062H266.21C266.901 129.062 267.391 128.929 267.68 128.662C267.973 128.392 268.119 128.065 268.119 127.682C268.119 127.386 268.044 127.114 267.893 126.864C267.743 126.611 267.528 126.409 267.25 126.259C266.972 126.105 266.642 126.028 266.261 126.028H264.114V129.062ZM264.114 125.108H266.074C266.392 125.108 266.679 125.045 266.935 124.92C267.193 124.795 267.398 124.619 267.548 124.392C267.702 124.165 267.778 123.898 267.778 123.591C267.778 123.207 267.645 122.882 267.378 122.615C267.111 122.345 266.688 122.21 266.108 122.21H264.114V125.108ZM273.469 130.136C272.839 130.136 272.295 129.997 271.837 129.719C271.383 129.438 271.032 129.045 270.785 128.543C270.54 128.037 270.418 127.449 270.418 126.778C270.418 126.108 270.54 125.517 270.785 125.006C271.032 124.491 271.376 124.091 271.816 123.804C272.259 123.514 272.776 123.369 273.367 123.369C273.708 123.369 274.045 123.426 274.377 123.54C274.71 123.653 275.012 123.838 275.285 124.094C275.558 124.347 275.775 124.682 275.937 125.099C276.099 125.517 276.18 126.031 276.18 126.642V127.068H271.134V126.199H275.157C275.157 125.83 275.083 125.5 274.935 125.21C274.79 124.92 274.583 124.692 274.313 124.524C274.046 124.357 273.731 124.273 273.367 124.273C272.967 124.273 272.62 124.372 272.327 124.571C272.038 124.767 271.815 125.023 271.658 125.338C271.502 125.653 271.424 125.991 271.424 126.352V126.932C271.424 127.426 271.509 127.845 271.68 128.189C271.853 128.53 272.093 128.79 272.4 128.969C272.707 129.145 273.063 129.233 273.469 129.233C273.734 129.233 273.972 129.196 274.185 129.122C274.401 129.045 274.587 128.932 274.744 128.781C274.9 128.628 275.021 128.437 275.106 128.21L276.077 128.483C275.975 128.812 275.803 129.102 275.562 129.352C275.32 129.599 275.022 129.793 274.667 129.932C274.312 130.068 273.913 130.136 273.469 130.136ZM280.556 123.455V124.307H277.164V123.455H280.556ZM278.153 121.886H279.158V128.125C279.158 128.409 279.2 128.622 279.282 128.764C279.367 128.903 279.475 128.997 279.606 129.045C279.739 129.091 279.88 129.114 280.028 129.114C280.138 129.114 280.229 129.108 280.3 129.097C280.371 129.082 280.428 129.071 280.471 129.062L280.675 129.966C280.607 129.991 280.512 130.017 280.39 130.043C280.268 130.071 280.113 130.085 279.925 130.085C279.641 130.085 279.363 130.024 279.09 129.902C278.82 129.78 278.596 129.594 278.417 129.344C278.241 129.094 278.153 128.778 278.153 128.398V121.886ZM283.995 130.153C283.58 130.153 283.204 130.075 282.866 129.919C282.528 129.76 282.259 129.531 282.06 129.233C281.862 128.932 281.762 128.568 281.762 128.142C281.762 127.767 281.836 127.463 281.984 127.23C282.131 126.994 282.329 126.81 282.576 126.676C282.823 126.543 283.096 126.443 283.394 126.378C283.695 126.31 283.998 126.256 284.302 126.216C284.7 126.165 285.022 126.126 285.269 126.101C285.519 126.072 285.701 126.026 285.815 125.96C285.931 125.895 285.989 125.781 285.989 125.619V125.585C285.989 125.165 285.874 124.838 285.644 124.605C285.417 124.372 285.072 124.256 284.609 124.256C284.129 124.256 283.752 124.361 283.479 124.571C283.207 124.781 283.015 125.006 282.904 125.244L281.95 124.903C282.12 124.506 282.347 124.196 282.631 123.974C282.918 123.75 283.231 123.594 283.569 123.506C283.91 123.415 284.245 123.369 284.575 123.369C284.785 123.369 285.026 123.395 285.299 123.446C285.575 123.494 285.84 123.595 286.096 123.749C286.354 123.902 286.569 124.134 286.739 124.443C286.91 124.753 286.995 125.168 286.995 125.688V130H285.989V129.114H285.938C285.87 129.256 285.756 129.408 285.597 129.57C285.438 129.732 285.227 129.869 284.962 129.983C284.698 130.097 284.376 130.153 283.995 130.153ZM284.148 129.25C284.546 129.25 284.881 129.172 285.154 129.016C285.43 128.859 285.637 128.658 285.776 128.411C285.918 128.163 285.989 127.903 285.989 127.631V126.71C285.947 126.761 285.853 126.808 285.708 126.851C285.566 126.891 285.401 126.926 285.214 126.957C285.029 126.986 284.849 127.011 284.673 127.034C284.499 127.054 284.359 127.071 284.251 127.085C283.989 127.119 283.745 127.175 283.518 127.251C283.293 127.325 283.112 127.437 282.972 127.588C282.836 127.736 282.768 127.937 282.768 128.193C282.768 128.543 282.897 128.807 283.156 128.986C283.417 129.162 283.748 129.25 284.148 129.25Z" fill="#D3E8D1"/>
<rect x="311" y="113" width="25" height="25" rx="12.5" fill="#394B3A"/>
<path d="M320.699 128.21V127.341L324.534 121.273H325.165V122.619H324.739L321.841 127.205V127.273H327.006V128.21H320.699ZM324.807 130V127.946V127.541V121.273H325.812V130H324.807Z" fill="#D3E8D1"/>
<rect x="347" y="113" width="25" height="23.3776" rx="11.6888" fill="#1F4D55"/>
<path d="M359.972 121.273V130H358.915V122.381H358.864L356.733 123.795V122.722L358.915 121.273H359.972Z" fill="#BDEAF4"/>
<path d="M190.646 162.354C190.842 162.549 191.158 162.549 191.354 162.354L194.536 159.172C194.731 158.976 194.731 158.66 194.536 158.464C194.34 158.269 194.024 158.269 193.828 158.464L191 161.293L188.172 158.464C187.976 158.269 187.66 158.269 187.464 158.464C187.269 158.66 187.269 158.976 187.464 159.172L190.646 162.354ZM191 144L190.5 144L190.5 162L191 162L191.5 162L191.5 144L191 144Z" fill="#C1C9BE"/>
<path d="M228.354 87.6464C228.158 87.4512 227.842 87.4512 227.646 87.6464L224.464 90.8284C224.269 91.0237 224.269 91.3403 224.464 91.5355C224.66 91.7308 224.976 91.7308 225.172 91.5355L228 88.7071L230.828 91.5355C231.024 91.7308 231.34 91.7308 231.536 91.5355C231.731 91.3403 231.731 91.0237 231.536 90.8284L228.354 87.6464ZM228 104L228.5 104L228.5 88L228 88L227.5 88L227.5 104L228 104Z" fill="#C1C9BE"/>
<path d="M150.915 182H149.807L153.011 173.273H154.102L157.307 182H156.199L153.591 174.653H153.523L150.915 182ZM151.324 178.591H155.79V179.528H151.324V178.591ZM159.536 178.062V182H158.53V175.455H159.501V176.477H159.587C159.74 176.145 159.973 175.878 160.286 175.676C160.598 175.472 161.001 175.369 161.496 175.369C161.939 175.369 162.327 175.46 162.659 175.642C162.991 175.821 163.25 176.094 163.435 176.46C163.619 176.824 163.712 177.284 163.712 177.841V182H162.706V177.909C162.706 177.395 162.572 176.994 162.305 176.707C162.038 176.418 161.672 176.273 161.206 176.273C160.885 176.273 160.598 176.342 160.345 176.482C160.095 176.621 159.898 176.824 159.753 177.091C159.608 177.358 159.536 177.682 159.536 178.062ZM168.021 182.136C167.475 182.136 166.994 181.999 166.576 181.723C166.159 181.445 165.832 181.053 165.596 180.547C165.36 180.038 165.243 179.438 165.243 178.744C165.243 178.057 165.36 177.46 165.596 176.955C165.832 176.449 166.16 176.058 166.581 175.783C167.001 175.507 167.487 175.369 168.038 175.369C168.464 175.369 168.801 175.44 169.048 175.582C169.298 175.722 169.488 175.881 169.619 176.06C169.752 176.236 169.856 176.381 169.93 176.494H170.015V173.273H171.021V182H170.049V180.994H169.93C169.856 181.114 169.751 181.264 169.615 181.446C169.478 181.625 169.284 181.786 169.031 181.928C168.778 182.067 168.441 182.136 168.021 182.136ZM168.157 181.233C168.561 181.233 168.902 181.128 169.18 180.918C169.458 180.705 169.67 180.411 169.815 180.036C169.96 179.658 170.032 179.222 170.032 178.727C170.032 178.239 169.961 177.811 169.819 177.445C169.677 177.075 169.467 176.788 169.189 176.584C168.91 176.376 168.566 176.273 168.157 176.273C167.731 176.273 167.376 176.382 167.092 176.601C166.811 176.817 166.599 177.111 166.457 177.483C166.318 177.852 166.248 178.267 166.248 178.727C166.248 179.193 166.319 179.616 166.461 179.997C166.606 180.375 166.819 180.676 167.1 180.901C167.385 181.122 167.737 181.233 168.157 181.233ZM173.002 182V175.455H173.974V176.443H174.042C174.162 176.119 174.377 175.857 174.69 175.655C175.002 175.453 175.355 175.352 175.747 175.352C175.821 175.352 175.913 175.354 176.024 175.357C176.135 175.359 176.218 175.364 176.275 175.369V176.392C176.241 176.384 176.163 176.371 176.041 176.354C175.922 176.334 175.795 176.324 175.662 176.324C175.343 176.324 175.059 176.391 174.809 176.524C174.562 176.655 174.366 176.837 174.221 177.07C174.079 177.3 174.008 177.562 174.008 177.858V182H173.002ZM179.927 182.136C179.336 182.136 178.818 181.996 178.372 181.714C177.929 181.433 177.582 181.04 177.332 180.534C177.085 180.028 176.961 179.437 176.961 178.761C176.961 178.08 177.085 177.484 177.332 176.976C177.582 176.467 177.929 176.072 178.372 175.791C178.818 175.51 179.336 175.369 179.927 175.369C180.518 175.369 181.035 175.51 181.478 175.791C181.924 176.072 182.271 176.467 182.518 176.976C182.768 177.484 182.893 178.08 182.893 178.761C182.893 179.437 182.768 180.028 182.518 180.534C182.271 181.04 181.924 181.433 181.478 181.714C181.035 181.996 180.518 182.136 179.927 182.136ZM179.927 181.233C180.376 181.233 180.745 181.118 181.035 180.888C181.325 180.658 181.539 180.355 181.679 179.98C181.818 179.605 181.887 179.199 181.887 178.761C181.887 178.324 181.818 177.916 181.679 177.538C181.539 177.161 181.325 176.855 181.035 176.622C180.745 176.389 180.376 176.273 179.927 176.273C179.478 176.273 179.109 176.389 178.819 176.622C178.529 176.855 178.315 177.161 178.176 177.538C178.037 177.916 177.967 178.324 177.967 178.761C177.967 179.199 178.037 179.605 178.176 179.98C178.315 180.355 178.529 180.658 178.819 180.888C179.109 181.118 179.478 181.233 179.927 181.233ZM184.428 182V175.455H185.434V182H184.428ZM184.94 174.364C184.744 174.364 184.575 174.297 184.433 174.163C184.293 174.03 184.224 173.869 184.224 173.682C184.224 173.494 184.293 173.334 184.433 173.2C184.575 173.067 184.744 173 184.94 173C185.136 173 185.303 173.067 185.442 173.2C185.585 173.334 185.656 173.494 185.656 173.682C185.656 173.869 185.585 174.03 185.442 174.163C185.303 174.297 185.136 174.364 184.94 174.364ZM189.748 182.136C189.202 182.136 188.721 181.999 188.303 181.723C187.885 181.445 187.559 181.053 187.323 180.547C187.087 180.038 186.969 179.438 186.969 178.744C186.969 178.057 187.087 177.46 187.323 176.955C187.559 176.449 187.887 176.058 188.307 175.783C188.728 175.507 189.213 175.369 189.765 175.369C190.191 175.369 190.527 175.44 190.775 175.582C191.025 175.722 191.215 175.881 191.346 176.06C191.479 176.236 191.583 176.381 191.657 176.494H191.742V173.273H192.748V182H191.776V180.994H191.657C191.583 181.114 191.478 181.264 191.341 181.446C191.205 181.625 191.01 181.786 190.757 181.928C190.505 182.067 190.168 182.136 189.748 182.136ZM189.884 181.233C190.287 181.233 190.628 181.128 190.907 180.918C191.185 180.705 191.397 180.411 191.542 180.036C191.686 179.658 191.759 179.222 191.759 178.727C191.759 178.239 191.688 177.811 191.546 177.445C191.404 177.075 191.194 176.788 190.915 176.584C190.637 176.376 190.293 176.273 189.884 176.273C189.458 176.273 189.103 176.382 188.819 176.601C188.537 176.817 188.326 177.111 188.184 177.483C188.044 177.852 187.975 178.267 187.975 178.727C187.975 179.193 188.046 179.616 188.188 179.997C188.333 180.375 188.546 180.676 188.827 180.901C189.111 181.122 189.463 181.233 189.884 181.233ZM198.24 173.273H199.502L202.468 180.517H202.57L205.536 173.273H206.797V182H205.809V175.369H205.723L202.996 182H202.042L199.314 175.369H199.229V182H198.24V173.273ZM210.706 182.153C210.291 182.153 209.915 182.075 209.577 181.919C209.239 181.76 208.97 181.531 208.771 181.233C208.572 180.932 208.473 180.568 208.473 180.142C208.473 179.767 208.547 179.463 208.695 179.23C208.842 178.994 209.04 178.81 209.287 178.676C209.534 178.543 209.807 178.443 210.105 178.378C210.406 178.31 210.709 178.256 211.013 178.216C211.411 178.165 211.733 178.126 211.98 178.101C212.23 178.072 212.412 178.026 212.526 177.96C212.642 177.895 212.7 177.781 212.7 177.619V177.585C212.7 177.165 212.585 176.838 212.355 176.605C212.128 176.372 211.783 176.256 211.32 176.256C210.839 176.256 210.463 176.361 210.19 176.571C209.918 176.781 209.726 177.006 209.615 177.244L208.661 176.903C208.831 176.506 209.058 176.196 209.342 175.974C209.629 175.75 209.942 175.594 210.28 175.506C210.621 175.415 210.956 175.369 211.286 175.369C211.496 175.369 211.737 175.395 212.01 175.446C212.286 175.494 212.551 175.595 212.807 175.749C213.065 175.902 213.28 176.134 213.45 176.443C213.621 176.753 213.706 177.168 213.706 177.688V182H212.7V181.114H212.649C212.581 181.256 212.467 181.408 212.308 181.57C212.149 181.732 211.938 181.869 211.673 181.983C211.409 182.097 211.087 182.153 210.706 182.153ZM210.859 181.25C211.257 181.25 211.592 181.172 211.865 181.016C212.141 180.859 212.348 180.658 212.487 180.411C212.629 180.163 212.7 179.903 212.7 179.631V178.71C212.658 178.761 212.564 178.808 212.419 178.851C212.277 178.891 212.112 178.926 211.925 178.957C211.74 178.986 211.56 179.011 211.384 179.034C211.21 179.054 211.07 179.071 210.962 179.085C210.7 179.119 210.456 179.175 210.229 179.251C210.004 179.325 209.822 179.437 209.683 179.588C209.547 179.736 209.479 179.937 209.479 180.193C209.479 180.543 209.608 180.807 209.866 180.986C210.128 181.162 210.459 181.25 210.859 181.25ZM215.542 175.455H216.547V182.477C216.547 182.881 216.478 183.23 216.338 183.526C216.202 183.821 215.995 184.05 215.716 184.212C215.441 184.374 215.093 184.455 214.672 184.455C214.638 184.455 214.604 184.455 214.57 184.455C214.536 184.455 214.502 184.455 214.468 184.455V183.517C214.502 183.517 214.533 183.517 214.561 183.517C214.59 183.517 214.621 183.517 214.655 183.517C214.962 183.517 215.186 183.426 215.328 183.244C215.471 183.065 215.542 182.81 215.542 182.477V175.455ZM216.036 174.364C215.84 174.364 215.671 174.297 215.529 174.163C215.39 174.03 215.32 173.869 215.32 173.682C215.32 173.494 215.39 173.334 215.529 173.2C215.671 173.067 215.84 173 216.036 173C216.232 173 216.4 173.067 216.539 173.2C216.681 173.334 216.752 173.494 216.752 173.682C216.752 173.869 216.681 174.03 216.539 174.163C216.4 174.297 216.232 174.364 216.036 174.364ZM221.048 182.136C220.457 182.136 219.939 181.996 219.493 181.714C219.05 181.433 218.703 181.04 218.453 180.534C218.206 180.028 218.082 179.437 218.082 178.761C218.082 178.08 218.206 177.484 218.453 176.976C218.703 176.467 219.05 176.072 219.493 175.791C219.939 175.51 220.457 175.369 221.048 175.369C221.639 175.369 222.156 175.51 222.599 175.791C223.045 176.072 223.392 176.467 223.639 176.976C223.889 177.484 224.014 178.08 224.014 178.761C224.014 179.437 223.889 180.028 223.639 180.534C223.392 181.04 223.045 181.433 222.599 181.714C222.156 181.996 221.639 182.136 221.048 182.136ZM221.048 181.233C221.497 181.233 221.866 181.118 222.156 180.888C222.446 180.658 222.661 180.355 222.8 179.98C222.939 179.605 223.009 179.199 223.009 178.761C223.009 178.324 222.939 177.916 222.8 177.538C222.661 177.161 222.446 176.855 222.156 176.622C221.866 176.389 221.497 176.273 221.048 176.273C220.599 176.273 220.23 176.389 219.94 176.622C219.651 176.855 219.436 177.161 219.297 177.538C219.158 177.916 219.088 178.324 219.088 178.761C219.088 179.199 219.158 179.605 219.297 179.98C219.436 180.355 219.651 180.658 219.94 180.888C220.23 181.118 220.599 181.233 221.048 181.233ZM225.549 182V175.455H226.521V176.443H226.589C226.708 176.119 226.924 175.857 227.237 175.655C227.549 175.453 227.902 175.352 228.294 175.352C228.368 175.352 228.46 175.354 228.571 175.357C228.681 175.359 228.765 175.364 228.822 175.369V176.392C228.788 176.384 228.71 176.371 228.588 176.354C228.468 176.334 228.342 176.324 228.208 176.324C227.89 176.324 227.606 176.391 227.356 176.524C227.109 176.655 226.913 176.837 226.768 177.07C226.626 177.3 226.555 177.562 226.555 177.858V182H225.549Z" fill="#9BD4A0"/>
<path d="M187.915 78H186.807L190.011 69.2727H191.102L194.307 78H193.199L190.591 70.6534H190.523L187.915 78ZM188.324 74.5909H192.79V75.5284H188.324V74.5909ZM196.536 74.0625V78H195.53V71.4545H196.501V72.4773H196.587C196.74 72.1449 196.973 71.8778 197.286 71.6761C197.598 71.4716 198.001 71.3693 198.496 71.3693C198.939 71.3693 199.327 71.4602 199.659 71.642C199.991 71.821 200.25 72.0938 200.435 72.4602C200.619 72.8239 200.712 73.2841 200.712 73.8409V78H199.706V73.9091C199.706 73.3949 199.572 72.9943 199.305 72.7074C199.038 72.4176 198.672 72.2727 198.206 72.2727C197.885 72.2727 197.598 72.3423 197.345 72.4815C197.095 72.6207 196.898 72.8239 196.753 73.0909C196.608 73.358 196.536 73.6818 196.536 74.0625ZM205.021 78.1364C204.475 78.1364 203.994 77.9986 203.576 77.723C203.159 77.4446 202.832 77.0526 202.596 76.5469C202.36 76.0384 202.243 75.4375 202.243 74.7443C202.243 74.0568 202.36 73.4602 202.596 72.9545C202.832 72.4489 203.16 72.0582 203.581 71.7827C204.001 71.5071 204.487 71.3693 205.038 71.3693C205.464 71.3693 205.801 71.4403 206.048 71.5824C206.298 71.7216 206.488 71.8807 206.619 72.0597C206.752 72.2358 206.856 72.3807 206.93 72.4943H207.015V69.2727H208.021V78H207.049V76.9943H206.93C206.856 77.1136 206.751 77.2642 206.615 77.446C206.478 77.625 206.284 77.7855 206.031 77.9276C205.778 78.0668 205.441 78.1364 205.021 78.1364ZM205.157 77.233C205.561 77.233 205.902 77.1278 206.18 76.9176C206.458 76.7045 206.67 76.4105 206.815 76.0355C206.96 75.6577 207.032 75.2216 207.032 74.7273C207.032 74.2386 206.961 73.8111 206.819 73.4446C206.677 73.0753 206.467 72.7884 206.189 72.5838C205.91 72.3764 205.566 72.2727 205.157 72.2727C204.731 72.2727 204.376 72.3821 204.092 72.6009C203.811 72.8168 203.599 73.1108 203.457 73.483C203.318 73.8523 203.248 74.267 203.248 74.7273C203.248 75.1932 203.319 75.6165 203.461 75.9972C203.606 76.375 203.819 76.6761 204.1 76.9006C204.385 77.1222 204.737 77.233 205.157 77.233ZM210.002 78V71.4545H210.974V72.4432H211.042C211.162 72.1193 211.377 71.8565 211.69 71.6548C212.002 71.4531 212.355 71.3523 212.747 71.3523C212.821 71.3523 212.913 71.3537 213.024 71.3565C213.135 71.3594 213.218 71.3636 213.275 71.3693V72.392C213.241 72.3835 213.163 72.3707 213.041 72.3537C212.922 72.3338 212.795 72.3239 212.662 72.3239C212.343 72.3239 212.059 72.3906 211.809 72.5241C211.562 72.6548 211.366 72.8366 211.221 73.0696C211.079 73.2997 211.008 73.5625 211.008 73.858V78H210.002ZM216.927 78.1364C216.336 78.1364 215.818 77.9957 215.372 77.7145C214.929 77.4332 214.582 77.0398 214.332 76.5341C214.085 76.0284 213.961 75.4375 213.961 74.7614C213.961 74.0795 214.085 73.4844 214.332 72.9759C214.582 72.4673 214.929 72.0724 215.372 71.7912C215.818 71.5099 216.336 71.3693 216.927 71.3693C217.518 71.3693 218.035 71.5099 218.478 71.7912C218.924 72.0724 219.271 72.4673 219.518 72.9759C219.768 73.4844 219.893 74.0795 219.893 74.7614C219.893 75.4375 219.768 76.0284 219.518 76.5341C219.271 77.0398 218.924 77.4332 218.478 77.7145C218.035 77.9957 217.518 78.1364 216.927 78.1364ZM216.927 77.233C217.376 77.233 217.745 77.1179 218.035 76.8878C218.325 76.6577 218.539 76.3551 218.679 75.9801C218.818 75.6051 218.887 75.1989 218.887 74.7614C218.887 74.3239 218.818 73.9162 218.679 73.5384C218.539 73.1605 218.325 72.8551 218.035 72.6222C217.745 72.3892 217.376 72.2727 216.927 72.2727C216.478 72.2727 216.109 72.3892 215.819 72.6222C215.529 72.8551 215.315 73.1605 215.176 73.5384C215.037 73.9162 214.967 74.3239 214.967 74.7614C214.967 75.1989 215.037 75.6051 215.176 75.9801C215.315 76.3551 215.529 76.6577 215.819 76.8878C216.109 77.1179 216.478 77.233 216.927 77.233ZM221.428 78V71.4545H222.434V78H221.428ZM221.94 70.3636C221.744 70.3636 221.575 70.2969 221.433 70.1634C221.293 70.0298 221.224 69.8693 221.224 69.6818C221.224 69.4943 221.293 69.3338 221.433 69.2003C221.575 69.0668 221.744 69 221.94 69C222.136 69 222.303 69.0668 222.442 69.2003C222.585 69.3338 222.656 69.4943 222.656 69.6818C222.656 69.8693 222.585 70.0298 222.442 70.1634C222.303 70.2969 222.136 70.3636 221.94 70.3636ZM226.748 78.1364C226.202 78.1364 225.721 77.9986 225.303 77.723C224.885 77.4446 224.559 77.0526 224.323 76.5469C224.087 76.0384 223.969 75.4375 223.969 74.7443C223.969 74.0568 224.087 73.4602 224.323 72.9545C224.559 72.4489 224.887 72.0582 225.307 71.7827C225.728 71.5071 226.213 71.3693 226.765 71.3693C227.191 71.3693 227.527 71.4403 227.775 71.5824C228.025 71.7216 228.215 71.8807 228.346 72.0597C228.479 72.2358 228.583 72.3807 228.657 72.4943H228.742V69.2727H229.748V78H228.776V76.9943H228.657C228.583 77.1136 228.478 77.2642 228.341 77.446C228.205 77.625 228.01 77.7855 227.757 77.9276C227.505 78.0668 227.168 78.1364 226.748 78.1364ZM226.884 77.233C227.287 77.233 227.628 77.1278 227.907 76.9176C228.185 76.7045 228.397 76.4105 228.542 76.0355C228.686 75.6577 228.759 75.2216 228.759 74.7273C228.759 74.2386 228.688 73.8111 228.546 73.4446C228.404 73.0753 228.194 72.7884 227.915 72.5838C227.637 72.3764 227.293 72.2727 226.884 72.2727C226.458 72.2727 226.103 72.3821 225.819 72.6009C225.537 72.8168 225.326 73.1108 225.184 73.483C225.044 73.8523 224.975 74.267 224.975 74.7273C224.975 75.1932 225.046 75.6165 225.188 75.9972C225.333 76.375 225.546 76.6761 225.827 76.9006C226.111 77.1222 226.463 77.233 226.884 77.233ZM235.24 69.2727H236.502L239.468 76.517H239.57L242.536 69.2727H243.797V78H242.809V71.3693H242.723L239.996 78H239.042L236.314 71.3693H236.229V78H235.24V69.2727ZM245.78 78V71.4545H246.786V78H245.78ZM246.291 70.3636C246.095 70.3636 245.926 70.2969 245.784 70.1634C245.645 70.0298 245.575 69.8693 245.575 69.6818C245.575 69.4943 245.645 69.3338 245.784 69.2003C245.926 69.0668 246.095 69 246.291 69C246.487 69 246.655 69.0668 246.794 69.2003C246.936 69.3338 247.007 69.4943 247.007 69.6818C247.007 69.8693 246.936 70.0298 246.794 70.1634C246.655 70.2969 246.487 70.3636 246.291 70.3636ZM249.633 74.0625V78H248.627V71.4545H249.599V72.4773H249.684C249.838 72.1449 250.071 71.8778 250.383 71.6761C250.696 71.4716 251.099 71.3693 251.593 71.3693C252.037 71.3693 252.424 71.4602 252.757 71.642C253.089 71.821 253.348 72.0938 253.532 72.4602C253.717 72.8239 253.809 73.2841 253.809 73.8409V78H252.804V73.9091C252.804 73.3949 252.67 72.9943 252.403 72.7074C252.136 72.4176 251.77 72.2727 251.304 72.2727C250.983 72.2727 250.696 72.3423 250.443 72.4815C250.193 72.6207 249.995 72.8239 249.85 73.0909C249.706 73.358 249.633 73.6818 249.633 74.0625ZM258.306 78.1364C257.715 78.1364 257.197 77.9957 256.751 77.7145C256.308 77.4332 255.961 77.0398 255.711 76.5341C255.464 76.0284 255.34 75.4375 255.34 74.7614C255.34 74.0795 255.464 73.4844 255.711 72.9759C255.961 72.4673 256.308 72.0724 256.751 71.7912C257.197 71.5099 257.715 71.3693 258.306 71.3693C258.897 71.3693 259.414 71.5099 259.857 71.7912C260.303 72.0724 260.65 72.4673 260.897 72.9759C261.147 73.4844 261.272 74.0795 261.272 74.7614C261.272 75.4375 261.147 76.0284 260.897 76.5341C260.65 77.0398 260.303 77.4332 259.857 77.7145C259.414 77.9957 258.897 78.1364 258.306 78.1364ZM258.306 77.233C258.755 77.233 259.124 77.1179 259.414 76.8878C259.704 76.6577 259.918 76.3551 260.058 75.9801C260.197 75.6051 260.266 75.1989 260.266 74.7614C260.266 74.3239 260.197 73.9162 260.058 73.5384C259.918 73.1605 259.704 72.8551 259.414 72.6222C259.124 72.3892 258.755 72.2727 258.306 72.2727C257.857 72.2727 257.488 72.3892 257.198 72.6222C256.908 72.8551 256.694 73.1605 256.555 73.5384C256.415 73.9162 256.346 74.3239 256.346 74.7614C256.346 75.1989 256.415 75.6051 256.555 75.9801C256.694 76.3551 256.908 76.6577 257.198 76.8878C257.488 77.1179 257.857 77.233 258.306 77.233ZM262.807 78V71.4545H263.779V72.4432H263.847C263.966 72.1193 264.182 71.8565 264.495 71.6548C264.807 71.4531 265.159 71.3523 265.551 71.3523C265.625 71.3523 265.718 71.3537 265.828 71.3565C265.939 71.3594 266.023 71.3636 266.08 71.3693V72.392C266.046 72.3835 265.968 72.3707 265.846 72.3537C265.726 72.3338 265.6 72.3239 265.466 72.3239C265.148 72.3239 264.864 72.3906 264.614 72.5241C264.367 72.6548 264.171 72.8366 264.026 73.0696C263.884 73.2997 263.813 73.5625 263.813 73.858V78H262.807Z" fill="#9BD4A0"/>
<path d="M323.646 190.354C323.842 190.549 324.158 190.549 324.354 190.354L327.536 187.172C327.731 186.976 327.731 186.66 327.536 186.464C327.34 186.269 327.024 186.269 326.828 186.464L324 189.293L321.172 186.464C320.976 186.269 320.66 186.269 320.464 186.464C320.269 186.66 320.269 186.976 320.464 187.172L323.646 190.354ZM324 145L323.5 145L323.5 190L324 190L324.5 190L324.5 145L324 145Z" fill="#C1C9BE"/>
<path d="M360.354 83.6464C360.158 83.4512 359.842 83.4512 359.646 83.6464L356.464 86.8284C356.269 87.0237 356.269 87.3403 356.464 87.5355C356.66 87.7308 356.976 87.7308 357.172 87.5355L360 84.7071L362.828 87.5355C363.024 87.7308 363.34 87.7308 363.536 87.5355C363.731 87.3403 363.731 87.0237 363.536 86.8284L360.354 83.6464ZM360 104L360.5 104L360.5 84L360 84L359.5 84L359.5 104L360 104Z" fill="#C1C9BE"/>
<path d="M266.75 209H264.057V200.273H266.869C267.716 200.273 268.44 200.447 269.043 200.797C269.645 201.143 270.107 201.642 270.428 202.293C270.749 202.94 270.909 203.716 270.909 204.619C270.909 205.528 270.747 206.311 270.423 206.967C270.099 207.621 269.628 208.124 269.009 208.476C268.389 208.825 267.636 209 266.75 209ZM265.114 208.062H266.682C267.403 208.062 268.001 207.923 268.476 207.645C268.95 207.366 269.304 206.97 269.537 206.456C269.77 205.942 269.886 205.33 269.886 204.619C269.886 203.915 269.771 203.308 269.541 202.8C269.311 202.288 268.967 201.896 268.51 201.624C268.053 201.348 267.483 201.21 266.801 201.21H265.114V208.062ZM275.29 209.136C274.659 209.136 274.115 208.997 273.658 208.719C273.203 208.438 272.852 208.045 272.605 207.543C272.361 207.037 272.239 206.449 272.239 205.778C272.239 205.108 272.361 204.517 272.605 204.006C272.852 203.491 273.196 203.091 273.636 202.804C274.08 202.514 274.597 202.369 275.188 202.369C275.528 202.369 275.865 202.426 276.197 202.54C276.53 202.653 276.832 202.838 277.105 203.094C277.378 203.347 277.595 203.682 277.757 204.099C277.919 204.517 278 205.031 278 205.642V206.068H272.955V205.199H276.977C276.977 204.83 276.903 204.5 276.756 204.21C276.611 203.92 276.403 203.692 276.134 203.524C275.866 203.357 275.551 203.273 275.188 203.273C274.787 203.273 274.44 203.372 274.148 203.571C273.858 203.767 273.635 204.023 273.479 204.338C273.322 204.653 273.244 204.991 273.244 205.352V205.932C273.244 206.426 273.33 206.845 273.5 207.189C273.673 207.53 273.913 207.79 274.22 207.969C274.527 208.145 274.884 208.233 275.29 208.233C275.554 208.233 275.793 208.196 276.006 208.122C276.222 208.045 276.408 207.932 276.564 207.781C276.72 207.628 276.841 207.437 276.926 207.21L277.898 207.483C277.795 207.812 277.624 208.102 277.382 208.352C277.141 208.599 276.842 208.793 276.487 208.932C276.132 209.068 275.733 209.136 275.29 209.136ZM284.683 202.455L282.262 209H281.24L278.819 202.455H279.91L281.717 207.67H281.785L283.592 202.455H284.683ZM288.52 209.136C287.89 209.136 287.346 208.997 286.888 208.719C286.434 208.438 286.083 208.045 285.836 207.543C285.591 207.037 285.469 206.449 285.469 205.778C285.469 205.108 285.591 204.517 285.836 204.006C286.083 203.491 286.426 203.091 286.867 202.804C287.31 202.514 287.827 202.369 288.418 202.369C288.759 202.369 289.096 202.426 289.428 202.54C289.76 202.653 290.063 202.838 290.336 203.094C290.608 203.347 290.826 203.682 290.988 204.099C291.15 204.517 291.23 205.031 291.23 205.642V206.068H286.185V205.199H290.208C290.208 204.83 290.134 204.5 289.986 204.21C289.841 203.92 289.634 203.692 289.364 203.524C289.097 203.357 288.782 203.273 288.418 203.273C288.017 203.273 287.671 203.372 287.378 203.571C287.088 203.767 286.865 204.023 286.709 204.338C286.553 204.653 286.475 204.991 286.475 205.352V205.932C286.475 206.426 286.56 206.845 286.73 207.189C286.904 207.53 287.144 207.79 287.451 207.969C287.757 208.145 288.114 208.233 288.52 208.233C288.784 208.233 289.023 208.196 289.236 208.122C289.452 208.045 289.638 207.932 289.794 207.781C289.951 207.628 290.071 207.437 290.157 207.21L291.128 207.483C291.026 207.812 290.854 208.102 290.613 208.352C290.371 208.599 290.073 208.793 289.718 208.932C289.363 209.068 288.963 209.136 288.52 209.136ZM293.766 200.273V209H292.76V200.273H293.766ZM298.267 209.136C297.676 209.136 297.158 208.996 296.712 208.714C296.268 208.433 295.922 208.04 295.672 207.534C295.425 207.028 295.301 206.437 295.301 205.761C295.301 205.08 295.425 204.484 295.672 203.976C295.922 203.467 296.268 203.072 296.712 202.791C297.158 202.51 297.676 202.369 298.267 202.369C298.858 202.369 299.375 202.51 299.818 202.791C300.264 203.072 300.611 203.467 300.858 203.976C301.108 204.484 301.233 205.08 301.233 205.761C301.233 206.437 301.108 207.028 300.858 207.534C300.611 208.04 300.264 208.433 299.818 208.714C299.375 208.996 298.858 209.136 298.267 209.136ZM298.267 208.233C298.716 208.233 299.085 208.118 299.375 207.888C299.665 207.658 299.879 207.355 300.018 206.98C300.158 206.605 300.227 206.199 300.227 205.761C300.227 205.324 300.158 204.916 300.018 204.538C299.879 204.161 299.665 203.855 299.375 203.622C299.085 203.389 298.716 203.273 298.267 203.273C297.818 203.273 297.449 203.389 297.159 203.622C296.869 203.855 296.655 204.161 296.516 204.538C296.376 204.916 296.307 205.324 296.307 205.761C296.307 206.199 296.376 206.605 296.516 206.98C296.655 207.355 296.869 207.658 297.159 207.888C297.449 208.118 297.818 208.233 298.267 208.233ZM302.768 211.455V202.455H303.74V203.494H303.859C303.933 203.381 304.035 203.236 304.166 203.06C304.299 202.881 304.49 202.722 304.737 202.582C304.987 202.44 305.325 202.369 305.751 202.369C306.302 202.369 306.788 202.507 307.208 202.783C307.629 203.058 307.957 203.449 308.193 203.955C308.429 204.46 308.547 205.057 308.547 205.744C308.547 206.438 308.429 207.038 308.193 207.547C307.957 208.053 307.63 208.445 307.213 208.723C306.795 208.999 306.314 209.136 305.768 209.136C305.348 209.136 305.011 209.067 304.758 208.928C304.505 208.786 304.311 208.625 304.174 208.446C304.038 208.264 303.933 208.114 303.859 207.994H303.774V211.455H302.768ZM303.757 205.727C303.757 206.222 303.829 206.658 303.974 207.036C304.119 207.411 304.331 207.705 304.609 207.918C304.887 208.128 305.228 208.233 305.632 208.233C306.052 208.233 306.403 208.122 306.684 207.901C306.968 207.676 307.181 207.375 307.324 206.997C307.468 206.616 307.541 206.193 307.541 205.727C307.541 205.267 307.47 204.852 307.328 204.483C307.189 204.111 306.977 203.817 306.693 203.601C306.412 203.382 306.058 203.273 305.632 203.273C305.223 203.273 304.879 203.376 304.6 203.584C304.322 203.788 304.112 204.075 303.97 204.445C303.828 204.811 303.757 205.239 303.757 205.727ZM310.081 209V202.455H311.052V203.477H311.137C311.274 203.128 311.494 202.857 311.798 202.663C312.102 202.467 312.467 202.369 312.893 202.369C313.325 202.369 313.684 202.467 313.971 202.663C314.261 202.857 314.487 203.128 314.649 203.477H314.717C314.885 203.139 315.136 202.871 315.471 202.672C315.806 202.47 316.208 202.369 316.677 202.369C317.262 202.369 317.741 202.553 318.113 202.919C318.485 203.283 318.672 203.849 318.672 204.619V209H317.666V204.619C317.666 204.136 317.534 203.791 317.27 203.584C317.005 203.376 316.694 203.273 316.336 203.273C315.876 203.273 315.52 203.412 315.267 203.69C315.014 203.966 314.887 204.315 314.887 204.739V209H313.865V204.517C313.865 204.145 313.744 203.845 313.502 203.618C313.261 203.388 312.95 203.273 312.569 203.273C312.308 203.273 312.064 203.342 311.836 203.482C311.612 203.621 311.43 203.814 311.291 204.061C311.154 204.305 311.086 204.588 311.086 204.909V209H310.081ZM323.255 209.136C322.624 209.136 322.08 208.997 321.623 208.719C321.168 208.438 320.817 208.045 320.57 207.543C320.326 207.037 320.203 206.449 320.203 205.778C320.203 205.108 320.326 204.517 320.57 204.006C320.817 203.491 321.161 203.091 321.601 202.804C322.044 202.514 322.561 202.369 323.152 202.369C323.493 202.369 323.83 202.426 324.162 202.54C324.495 202.653 324.797 202.838 325.07 203.094C325.343 203.347 325.56 203.682 325.722 204.099C325.884 204.517 325.965 205.031 325.965 205.642V206.068H320.919V205.199H324.942C324.942 204.83 324.868 204.5 324.721 204.21C324.576 203.92 324.368 203.692 324.098 203.524C323.831 203.357 323.516 203.273 323.152 203.273C322.752 203.273 322.405 203.372 322.113 203.571C321.823 203.767 321.6 204.023 321.444 204.338C321.287 204.653 321.209 204.991 321.209 205.352V205.932C321.209 206.426 321.294 206.845 321.465 207.189C321.638 207.53 321.878 207.79 322.185 207.969C322.492 208.145 322.848 208.233 323.255 208.233C323.519 208.233 323.757 208.196 323.971 208.122C324.186 208.045 324.373 207.932 324.529 207.781C324.685 207.628 324.806 207.437 324.891 207.21L325.863 207.483C325.76 207.812 325.588 208.102 325.347 208.352C325.105 208.599 324.807 208.793 324.452 208.932C324.097 209.068 323.698 209.136 323.255 209.136ZM328.5 205.062V209H327.495V202.455H328.466V203.477H328.551C328.705 203.145 328.938 202.878 329.25 202.676C329.563 202.472 329.966 202.369 330.461 202.369C330.904 202.369 331.292 202.46 331.624 202.642C331.956 202.821 332.215 203.094 332.4 203.46C332.584 203.824 332.676 204.284 332.676 204.841V209H331.671V204.909C331.671 204.395 331.537 203.994 331.27 203.707C331.003 203.418 330.637 203.273 330.171 203.273C329.85 203.273 329.563 203.342 329.31 203.482C329.06 203.621 328.863 203.824 328.718 204.091C328.573 204.358 328.5 204.682 328.5 205.062ZM337.361 202.455V203.307H333.969V202.455H337.361ZM334.957 200.886H335.963V207.125C335.963 207.409 336.004 207.622 336.087 207.764C336.172 207.903 336.28 207.997 336.411 208.045C336.544 208.091 336.685 208.114 336.832 208.114C336.943 208.114 337.034 208.108 337.105 208.097C337.176 208.082 337.233 208.071 337.276 208.062L337.48 208.966C337.412 208.991 337.317 209.017 337.195 209.043C337.072 209.071 336.918 209.085 336.73 209.085C336.446 209.085 336.168 209.024 335.895 208.902C335.625 208.78 335.401 208.594 335.222 208.344C335.045 208.094 334.957 207.778 334.957 207.398V200.886ZM342.743 200.273L345.334 207.619H345.436L348.027 200.273H349.135L345.93 209H344.839L341.635 200.273H342.743ZM352.493 209.136C351.862 209.136 351.318 208.997 350.861 208.719C350.406 208.438 350.055 208.045 349.808 207.543C349.564 207.037 349.442 206.449 349.442 205.778C349.442 205.108 349.564 204.517 349.808 204.006C350.055 203.491 350.399 203.091 350.839 202.804C351.283 202.514 351.8 202.369 352.391 202.369C352.732 202.369 353.068 202.426 353.401 202.54C353.733 202.653 354.036 202.838 354.308 203.094C354.581 203.347 354.798 203.682 354.96 204.099C355.122 204.517 355.203 205.031 355.203 205.642V206.068H350.158V205.199H354.18C354.18 204.83 354.107 204.5 353.959 204.21C353.814 203.92 353.607 203.692 353.337 203.524C353.07 203.357 352.754 203.273 352.391 203.273C351.99 203.273 351.643 203.372 351.351 203.571C351.061 203.767 350.838 204.023 350.682 204.338C350.526 204.653 350.447 204.991 350.447 205.352V205.932C350.447 206.426 350.533 206.845 350.703 207.189C350.876 207.53 351.116 207.79 351.423 207.969C351.73 208.145 352.087 208.233 352.493 208.233C352.757 208.233 352.996 208.196 353.209 208.122C353.425 208.045 353.611 207.932 353.767 207.781C353.923 207.628 354.044 207.437 354.129 207.21L355.101 207.483C354.999 207.812 354.827 208.102 354.585 208.352C354.344 208.599 354.045 208.793 353.69 208.932C353.335 209.068 352.936 209.136 352.493 209.136ZM356.733 209V202.455H357.705V203.443H357.773C357.892 203.119 358.108 202.857 358.42 202.655C358.733 202.453 359.085 202.352 359.477 202.352C359.551 202.352 359.643 202.354 359.754 202.357C359.865 202.359 359.949 202.364 360.006 202.369V203.392C359.972 203.384 359.893 203.371 359.771 203.354C359.652 203.334 359.526 203.324 359.392 203.324C359.074 203.324 358.79 203.391 358.54 203.524C358.293 203.655 358.097 203.837 357.952 204.07C357.81 204.3 357.739 204.562 357.739 204.858V209H356.733ZM365.834 203.92L364.931 204.176C364.874 204.026 364.79 203.879 364.679 203.737C364.571 203.592 364.424 203.473 364.236 203.379C364.049 203.286 363.809 203.239 363.516 203.239C363.115 203.239 362.782 203.331 362.515 203.516C362.25 203.697 362.118 203.929 362.118 204.21C362.118 204.46 362.209 204.658 362.391 204.803C362.573 204.947 362.857 205.068 363.243 205.165L364.215 205.403C364.8 205.545 365.236 205.763 365.523 206.055C365.81 206.345 365.953 206.719 365.953 207.176C365.953 207.551 365.846 207.886 365.63 208.182C365.417 208.477 365.118 208.71 364.735 208.881C364.351 209.051 363.905 209.136 363.397 209.136C362.729 209.136 362.176 208.991 361.739 208.702C361.301 208.412 361.025 207.989 360.908 207.432L361.863 207.193C361.953 207.545 362.125 207.81 362.378 207.986C362.634 208.162 362.968 208.25 363.38 208.25C363.848 208.25 364.221 208.151 364.496 207.952C364.775 207.75 364.914 207.509 364.914 207.227C364.914 207 364.834 206.81 364.675 206.656C364.516 206.5 364.272 206.384 363.942 206.307L362.851 206.051C362.252 205.909 361.811 205.689 361.53 205.391C361.252 205.089 361.113 204.713 361.113 204.261C361.113 203.892 361.216 203.565 361.424 203.281C361.634 202.997 361.919 202.774 362.28 202.612C362.644 202.45 363.056 202.369 363.516 202.369C364.164 202.369 364.672 202.511 365.042 202.795C365.414 203.08 365.678 203.455 365.834 203.92ZM367.467 209V202.455H368.473V209H367.467ZM367.979 201.364C367.783 201.364 367.614 201.297 367.472 201.163C367.332 201.03 367.263 200.869 367.263 200.682C367.263 200.494 367.332 200.334 367.472 200.2C367.614 200.067 367.783 200 367.979 200C368.175 200 368.342 200.067 368.482 200.2C368.624 200.334 368.695 200.494 368.695 200.682C368.695 200.869 368.624 201.03 368.482 201.163C368.342 201.297 368.175 201.364 367.979 201.364ZM372.974 209.136C372.383 209.136 371.865 208.996 371.419 208.714C370.975 208.433 370.629 208.04 370.379 207.534C370.132 207.028 370.008 206.437 370.008 205.761C370.008 205.08 370.132 204.484 370.379 203.976C370.629 203.467 370.975 203.072 371.419 202.791C371.865 202.51 372.383 202.369 372.974 202.369C373.565 202.369 374.082 202.51 374.525 202.791C374.971 203.072 375.318 203.467 375.565 203.976C375.815 204.484 375.94 205.08 375.94 205.761C375.94 206.437 375.815 207.028 375.565 207.534C375.318 208.04 374.971 208.433 374.525 208.714C374.082 208.996 373.565 209.136 372.974 209.136ZM372.974 208.233C373.423 208.233 373.792 208.118 374.082 207.888C374.372 207.658 374.586 207.355 374.725 206.98C374.865 206.605 374.934 206.199 374.934 205.761C374.934 205.324 374.865 204.916 374.725 204.538C374.586 204.161 374.372 203.855 374.082 203.622C373.792 203.389 373.423 203.273 372.974 203.273C372.525 203.273 372.156 203.389 371.866 203.622C371.576 203.855 371.362 204.161 371.223 204.538C371.083 204.916 371.014 205.324 371.014 205.761C371.014 206.199 371.083 206.605 371.223 206.98C371.362 207.355 371.576 207.658 371.866 207.888C372.156 208.118 372.525 208.233 372.974 208.233ZM378.481 205.062V209H377.475V202.455H378.447V203.477H378.532C378.685 203.145 378.918 202.878 379.231 202.676C379.543 202.472 379.947 202.369 380.441 202.369C380.884 202.369 381.272 202.46 381.604 202.642C381.937 202.821 382.195 203.094 382.38 203.46C382.565 203.824 382.657 204.284 382.657 204.841V209H381.651V204.909C381.651 204.395 381.518 203.994 381.251 203.707C380.984 203.418 380.617 203.273 380.151 203.273C379.83 203.273 379.543 203.342 379.29 203.482C379.04 203.621 378.843 203.824 378.698 204.091C378.553 204.358 378.481 204.682 378.481 205.062Z" fill="#B8CCB6"/>
<path d="M276.354 49.6464C276.158 49.4512 275.842 49.4512 275.646 49.6464L272.464 52.8284C272.269 53.0237 272.269 53.3403 272.464 53.5355C272.66 53.7308 272.976 53.7308 273.172 53.5355L276 50.7071L278.828 53.5355C279.024 53.7308 279.34 53.7308 279.536 53.5355C279.731 53.3403 279.731 53.0237 279.536 52.8284L276.354 49.6464ZM276 105L276.5 105L276.5 50L276 50L275.5 50L275.5 105L276 105Z" fill="#C1C9BE"/>
<path d="M221.75 40H219.057V31.2727H221.869C222.716 31.2727 223.44 31.4474 224.043 31.7969C224.645 32.1435 225.107 32.642 225.428 33.2926C225.749 33.9403 225.909 34.7159 225.909 35.6193C225.909 36.5284 225.747 37.3111 225.423 37.9673C225.099 38.6207 224.628 39.1236 224.009 39.4759C223.389 39.8253 222.636 40 221.75 40ZM220.114 39.0625H221.682C222.403 39.0625 223.001 38.9233 223.476 38.6449C223.95 38.3665 224.304 37.9702 224.537 37.456C224.77 36.9418 224.886 36.3295 224.886 35.6193C224.886 34.9148 224.771 34.3082 224.541 33.7997C224.311 33.2884 223.967 32.8963 223.51 32.6236C223.053 32.348 222.483 32.2102 221.801 32.2102H220.114V39.0625ZM230.29 40.1364C229.659 40.1364 229.115 39.9972 228.658 39.7188C228.203 39.4375 227.852 39.0455 227.605 38.5426C227.361 38.0369 227.239 37.4489 227.239 36.7784C227.239 36.108 227.361 35.517 227.605 35.0057C227.852 34.4915 228.196 34.0909 228.636 33.804C229.08 33.5142 229.597 33.3693 230.188 33.3693C230.528 33.3693 230.865 33.4261 231.197 33.5398C231.53 33.6534 231.832 33.8381 232.105 34.0938C232.378 34.3466 232.595 34.6818 232.757 35.0994C232.919 35.517 233 36.0312 233 36.642V37.0682H227.955V36.1989H231.977C231.977 35.8295 231.903 35.5 231.756 35.2102C231.611 34.9205 231.403 34.6918 231.134 34.5241C230.866 34.3565 230.551 34.2727 230.188 34.2727C229.787 34.2727 229.44 34.3722 229.148 34.571C228.858 34.767 228.635 35.0227 228.479 35.3381C228.322 35.6534 228.244 35.9915 228.244 36.3523V36.9318C228.244 37.4261 228.33 37.8452 228.5 38.1889C228.673 38.5298 228.913 38.7898 229.22 38.9688C229.527 39.1449 229.884 39.233 230.29 39.233C230.554 39.233 230.793 39.196 231.006 39.1222C231.222 39.0455 231.408 38.9318 231.564 38.7812C231.72 38.6278 231.841 38.4375 231.926 38.2102L232.898 38.483C232.795 38.8125 232.624 39.1023 232.382 39.3523C232.141 39.5994 231.842 39.7926 231.487 39.9318C231.132 40.0682 230.733 40.1364 230.29 40.1364ZM239.683 33.4545L237.262 40H236.24L233.819 33.4545H234.91L236.717 38.6705H236.785L238.592 33.4545H239.683ZM243.52 40.1364C242.89 40.1364 242.346 39.9972 241.888 39.7188C241.434 39.4375 241.083 39.0455 240.836 38.5426C240.591 38.0369 240.469 37.4489 240.469 36.7784C240.469 36.108 240.591 35.517 240.836 35.0057C241.083 34.4915 241.426 34.0909 241.867 33.804C242.31 33.5142 242.827 33.3693 243.418 33.3693C243.759 33.3693 244.096 33.4261 244.428 33.5398C244.76 33.6534 245.063 33.8381 245.336 34.0938C245.608 34.3466 245.826 34.6818 245.988 35.0994C246.15 35.517 246.23 36.0312 246.23 36.642V37.0682H241.185V36.1989H245.208C245.208 35.8295 245.134 35.5 244.986 35.2102C244.841 34.9205 244.634 34.6918 244.364 34.5241C244.097 34.3565 243.782 34.2727 243.418 34.2727C243.017 34.2727 242.671 34.3722 242.378 34.571C242.088 34.767 241.865 35.0227 241.709 35.3381C241.553 35.6534 241.475 35.9915 241.475 36.3523V36.9318C241.475 37.4261 241.56 37.8452 241.73 38.1889C241.904 38.5298 242.144 38.7898 242.451 38.9688C242.757 39.1449 243.114 39.233 243.52 39.233C243.784 39.233 244.023 39.196 244.236 39.1222C244.452 39.0455 244.638 38.9318 244.794 38.7812C244.951 38.6278 245.071 38.4375 245.157 38.2102L246.128 38.483C246.026 38.8125 245.854 39.1023 245.613 39.3523C245.371 39.5994 245.073 39.7926 244.718 39.9318C244.363 40.0682 243.963 40.1364 243.52 40.1364ZM248.766 31.2727V40H247.76V31.2727H248.766ZM253.267 40.1364C252.676 40.1364 252.158 39.9957 251.712 39.7145C251.268 39.4332 250.922 39.0398 250.672 38.5341C250.425 38.0284 250.301 37.4375 250.301 36.7614C250.301 36.0795 250.425 35.4844 250.672 34.9759C250.922 34.4673 251.268 34.0724 251.712 33.7912C252.158 33.5099 252.676 33.3693 253.267 33.3693C253.858 33.3693 254.375 33.5099 254.818 33.7912C255.264 34.0724 255.611 34.4673 255.858 34.9759C256.108 35.4844 256.233 36.0795 256.233 36.7614C256.233 37.4375 256.108 38.0284 255.858 38.5341C255.611 39.0398 255.264 39.4332 254.818 39.7145C254.375 39.9957 253.858 40.1364 253.267 40.1364ZM253.267 39.233C253.716 39.233 254.085 39.1179 254.375 38.8878C254.665 38.6577 254.879 38.3551 255.018 37.9801C255.158 37.6051 255.227 37.1989 255.227 36.7614C255.227 36.3239 255.158 35.9162 255.018 35.5384C254.879 35.1605 254.665 34.8551 254.375 34.6222C254.085 34.3892 253.716 34.2727 253.267 34.2727C252.818 34.2727 252.449 34.3892 252.159 34.6222C251.869 34.8551 251.655 35.1605 251.516 35.5384C251.376 35.9162 251.307 36.3239 251.307 36.7614C251.307 37.1989 251.376 37.6051 251.516 37.9801C251.655 38.3551 251.869 38.6577 252.159 38.8878C252.449 39.1179 252.818 39.233 253.267 39.233ZM257.768 42.4545V33.4545H258.74V34.4943H258.859C258.933 34.3807 259.035 34.2358 259.166 34.0597C259.299 33.8807 259.49 33.7216 259.737 33.5824C259.987 33.4403 260.325 33.3693 260.751 33.3693C261.302 33.3693 261.788 33.5071 262.208 33.7827C262.629 34.0582 262.957 34.4489 263.193 34.9545C263.429 35.4602 263.547 36.0568 263.547 36.7443C263.547 37.4375 263.429 38.0384 263.193 38.5469C262.957 39.0526 262.63 39.4446 262.213 39.723C261.795 39.9986 261.314 40.1364 260.768 40.1364C260.348 40.1364 260.011 40.0668 259.758 39.9276C259.505 39.7855 259.311 39.625 259.174 39.446C259.038 39.2642 258.933 39.1136 258.859 38.9943H258.774V42.4545H257.768ZM258.757 36.7273C258.757 37.2216 258.829 37.6577 258.974 38.0355C259.119 38.4105 259.331 38.7045 259.609 38.9176C259.887 39.1278 260.228 39.233 260.632 39.233C261.052 39.233 261.403 39.1222 261.684 38.9006C261.968 38.6761 262.181 38.375 262.324 37.9972C262.468 37.6165 262.541 37.1932 262.541 36.7273C262.541 36.267 262.47 35.8523 262.328 35.483C262.189 35.1108 261.977 34.8168 261.693 34.6009C261.412 34.3821 261.058 34.2727 260.632 34.2727C260.223 34.2727 259.879 34.3764 259.6 34.5838C259.322 34.7884 259.112 35.0753 258.97 35.4446C258.828 35.8111 258.757 36.2386 258.757 36.7273ZM265.081 40V33.4545H266.052V34.4773H266.137C266.274 34.1278 266.494 33.8565 266.798 33.6634C267.102 33.4673 267.467 33.3693 267.893 33.3693C268.325 33.3693 268.684 33.4673 268.971 33.6634C269.261 33.8565 269.487 34.1278 269.649 34.4773H269.717C269.885 34.1392 270.136 33.8707 270.471 33.6719C270.806 33.4702 271.208 33.3693 271.677 33.3693C272.262 33.3693 272.741 33.5526 273.113 33.919C273.485 34.2827 273.672 34.8494 273.672 35.6193V40H272.666V35.6193C272.666 35.1364 272.534 34.7912 272.27 34.5838C272.005 34.3764 271.694 34.2727 271.336 34.2727C270.876 34.2727 270.52 34.4119 270.267 34.6903C270.014 34.9659 269.887 35.3153 269.887 35.7386V40H268.865V35.517C268.865 35.1449 268.744 34.8452 268.502 34.6179C268.261 34.3878 267.95 34.2727 267.569 34.2727C267.308 34.2727 267.064 34.3423 266.836 34.4815C266.612 34.6207 266.43 34.8139 266.291 35.0611C266.154 35.3054 266.086 35.5881 266.086 35.9091V40H265.081ZM278.255 40.1364C277.624 40.1364 277.08 39.9972 276.623 39.7188C276.168 39.4375 275.817 39.0455 275.57 38.5426C275.326 38.0369 275.203 37.4489 275.203 36.7784C275.203 36.108 275.326 35.517 275.57 35.0057C275.817 34.4915 276.161 34.0909 276.601 33.804C277.044 33.5142 277.561 33.3693 278.152 33.3693C278.493 33.3693 278.83 33.4261 279.162 33.5398C279.495 33.6534 279.797 33.8381 280.07 34.0938C280.343 34.3466 280.56 34.6818 280.722 35.0994C280.884 35.517 280.965 36.0312 280.965 36.642V37.0682H275.919V36.1989H279.942C279.942 35.8295 279.868 35.5 279.721 35.2102C279.576 34.9205 279.368 34.6918 279.098 34.5241C278.831 34.3565 278.516 34.2727 278.152 34.2727C277.752 34.2727 277.405 34.3722 277.113 34.571C276.823 34.767 276.6 35.0227 276.444 35.3381C276.287 35.6534 276.209 35.9915 276.209 36.3523V36.9318C276.209 37.4261 276.294 37.8452 276.465 38.1889C276.638 38.5298 276.878 38.7898 277.185 38.9688C277.492 39.1449 277.848 39.233 278.255 39.233C278.519 39.233 278.757 39.196 278.971 39.1222C279.186 39.0455 279.373 38.9318 279.529 38.7812C279.685 38.6278 279.806 38.4375 279.891 38.2102L280.863 38.483C280.76 38.8125 280.588 39.1023 280.347 39.3523C280.105 39.5994 279.807 39.7926 279.452 39.9318C279.097 40.0682 278.698 40.1364 278.255 40.1364ZM283.5 36.0625V40H282.495V33.4545H283.466V34.4773H283.551C283.705 34.1449 283.938 33.8778 284.25 33.6761C284.563 33.4716 284.966 33.3693 285.461 33.3693C285.904 33.3693 286.292 33.4602 286.624 33.642C286.956 33.821 287.215 34.0938 287.4 34.4602C287.584 34.8239 287.676 35.2841 287.676 35.8409V40H286.671V35.9091C286.671 35.3949 286.537 34.9943 286.27 34.7074C286.003 34.4176 285.637 34.2727 285.171 34.2727C284.85 34.2727 284.563 34.3423 284.31 34.4815C284.06 34.6207 283.863 34.8239 283.718 35.0909C283.573 35.358 283.5 35.6818 283.5 36.0625ZM292.361 33.4545V34.3068H288.969V33.4545H292.361ZM289.957 31.8864H290.963V38.125C290.963 38.4091 291.004 38.6222 291.087 38.7642C291.172 38.9034 291.28 38.9972 291.411 39.0455C291.544 39.0909 291.685 39.1136 291.832 39.1136C291.943 39.1136 292.034 39.108 292.105 39.0966C292.176 39.0824 292.233 39.071 292.276 39.0625L292.48 39.9659C292.412 39.9915 292.317 40.017 292.195 40.0426C292.072 40.071 291.918 40.0852 291.73 40.0852C291.446 40.0852 291.168 40.0241 290.895 39.902C290.625 39.7798 290.401 39.5938 290.222 39.3438C290.045 39.0938 289.957 38.7784 289.957 38.3977V31.8864ZM302.158 33.4545C302.107 33.0227 301.899 32.6875 301.536 32.4489C301.172 32.2102 300.726 32.0909 300.197 32.0909C299.811 32.0909 299.473 32.1534 299.183 32.2784C298.896 32.4034 298.672 32.5753 298.51 32.794C298.351 33.0128 298.271 33.2614 298.271 33.5398C298.271 33.7727 298.327 33.973 298.438 34.1406C298.551 34.3054 298.696 34.4432 298.872 34.554C299.048 34.6619 299.233 34.7514 299.426 34.8224C299.619 34.8906 299.797 34.946 299.959 34.9886L300.845 35.2273C301.072 35.2869 301.325 35.3693 301.604 35.4744C301.885 35.5795 302.153 35.723 302.409 35.9048C302.668 36.0838 302.881 36.3139 303.048 36.5952C303.216 36.8764 303.3 37.2216 303.3 37.6307C303.3 38.1023 303.176 38.5284 302.929 38.9091C302.685 39.2898 302.327 39.5923 301.855 39.8168C301.386 40.0412 300.817 40.1534 300.146 40.1534C299.521 40.1534 298.98 40.0526 298.523 39.8509C298.068 39.6491 297.71 39.3679 297.449 39.0071C297.19 38.6463 297.044 38.2273 297.01 37.75H298.101C298.129 38.0795 298.24 38.3523 298.433 38.5682C298.629 38.7812 298.876 38.9403 299.175 39.0455C299.476 39.1477 299.8 39.1989 300.146 39.1989C300.55 39.1989 300.912 39.1335 301.233 39.0028C301.554 38.8693 301.808 38.6847 301.996 38.4489C302.183 38.2102 302.277 37.9318 302.277 37.6136C302.277 37.3239 302.196 37.0881 302.034 36.9062C301.872 36.7244 301.659 36.5767 301.395 36.4631C301.131 36.3494 300.845 36.25 300.538 36.1648L299.464 35.858C298.783 35.6619 298.243 35.3821 297.845 35.0185C297.447 34.6548 297.249 34.179 297.249 33.5909C297.249 33.1023 297.381 32.6761 297.645 32.3125C297.912 31.946 298.27 31.6619 298.719 31.4602C299.17 31.2557 299.675 31.1534 300.232 31.1534C300.794 31.1534 301.294 31.2543 301.732 31.456C302.169 31.6548 302.516 31.9276 302.771 32.2741C303.03 32.6207 303.166 33.0142 303.18 33.4545H302.158ZM307.748 33.4545V34.3068H304.355V33.4545H307.748ZM305.344 31.8864H306.35V38.125C306.35 38.4091 306.391 38.6222 306.473 38.7642C306.559 38.9034 306.667 38.9972 306.797 39.0455C306.931 39.0909 307.071 39.1136 307.219 39.1136C307.33 39.1136 307.421 39.108 307.492 39.0966C307.563 39.0824 307.62 39.071 307.662 39.0625L307.867 39.9659C307.799 39.9915 307.703 40.017 307.581 40.0426C307.459 40.071 307.304 40.0852 307.117 40.0852C306.833 40.0852 306.554 40.0241 306.282 39.902C306.012 39.7798 305.787 39.5938 305.608 39.3438C305.432 39.0938 305.344 38.7784 305.344 38.3977V31.8864ZM311.186 40.1534C310.772 40.1534 310.395 40.0753 310.057 39.919C309.719 39.7599 309.451 39.5312 309.252 39.233C309.053 38.9318 308.953 38.5682 308.953 38.142C308.953 37.767 309.027 37.4631 309.175 37.2301C309.323 36.9943 309.52 36.8097 309.767 36.6761C310.015 36.5426 310.287 36.4432 310.586 36.3778C310.887 36.3097 311.189 36.2557 311.493 36.2159C311.891 36.1648 312.213 36.1264 312.461 36.1009C312.711 36.0724 312.892 36.0256 313.006 35.9602C313.123 35.8949 313.181 35.7812 313.181 35.6193V35.5852C313.181 35.1648 313.066 34.8381 312.836 34.6051C312.608 34.3722 312.263 34.2557 311.8 34.2557C311.32 34.2557 310.944 34.3608 310.671 34.571C310.398 34.7812 310.206 35.0057 310.096 35.2443L309.141 34.9034C309.311 34.5057 309.539 34.196 309.823 33.9744C310.11 33.75 310.422 33.5937 310.76 33.5057C311.101 33.4148 311.436 33.3693 311.766 33.3693C311.976 33.3693 312.218 33.3949 312.49 33.446C312.766 33.4943 313.032 33.5952 313.287 33.7486C313.546 33.902 313.76 34.1335 313.931 34.4432C314.101 34.7528 314.186 35.1676 314.186 35.6875V40H313.181V39.1136H313.13C313.061 39.2557 312.948 39.4077 312.789 39.5696C312.63 39.7315 312.418 39.8693 312.154 39.983C311.89 40.0966 311.567 40.1534 311.186 40.1534ZM311.34 39.25C311.738 39.25 312.073 39.1719 312.346 39.0156C312.621 38.8594 312.828 38.6577 312.968 38.4105C313.11 38.1634 313.181 37.9034 313.181 37.6307V36.7102C313.138 36.7614 313.044 36.8082 312.9 36.8509C312.757 36.8906 312.593 36.9261 312.405 36.9574C312.221 36.9858 312.04 37.0114 311.864 37.0341C311.691 37.054 311.55 37.071 311.442 37.0852C311.181 37.1193 310.936 37.1747 310.709 37.2514C310.485 37.3253 310.303 37.4375 310.164 37.5881C310.027 37.7358 309.959 37.9375 309.959 38.1932C309.959 38.5426 310.088 38.8068 310.347 38.9858C310.608 39.1619 310.939 39.25 311.34 39.25ZM318.869 33.4545V34.3068H315.477V33.4545H318.869ZM316.465 31.8864H317.471V38.125C317.471 38.4091 317.512 38.6222 317.594 38.7642C317.68 38.9034 317.788 38.9972 317.918 39.0455C318.052 39.0909 318.192 39.1136 318.34 39.1136C318.451 39.1136 318.542 39.108 318.613 39.0966C318.684 39.0824 318.741 39.071 318.783 39.0625L318.988 39.9659C318.92 39.9915 318.825 40.017 318.702 40.0426C318.58 40.071 318.425 40.0852 318.238 40.0852C317.954 40.0852 317.675 40.0241 317.403 39.902C317.133 39.7798 316.908 39.5938 316.729 39.3438C316.553 39.0938 316.465 38.7784 316.465 38.3977V31.8864ZM324.506 37.3239V33.4545H325.512V40H324.506V38.892H324.438C324.285 39.2244 324.046 39.5071 323.722 39.7401C323.398 39.9702 322.989 40.0852 322.495 40.0852C322.086 40.0852 321.722 39.9957 321.404 39.8168C321.086 39.6349 320.836 39.3622 320.654 38.9986C320.472 38.6321 320.381 38.1705 320.381 37.6136V33.4545H321.387V37.5455C321.387 38.0227 321.521 38.4034 321.788 38.6875C322.058 38.9716 322.401 39.1136 322.819 39.1136C323.069 39.1136 323.323 39.0497 323.582 38.9219C323.843 38.794 324.062 38.598 324.238 38.3338C324.417 38.0696 324.506 37.733 324.506 37.3239ZM331.99 34.9205L331.087 35.1761C331.03 35.0256 330.946 34.8793 330.836 34.7372C330.728 34.5923 330.58 34.473 330.392 34.3793C330.205 34.2855 329.965 34.2386 329.672 34.2386C329.272 34.2386 328.938 34.331 328.671 34.5156C328.407 34.6974 328.275 34.929 328.275 35.2102C328.275 35.4602 328.365 35.6577 328.547 35.8026C328.729 35.9474 329.013 36.0682 329.4 36.1648L330.371 36.4034C330.956 36.5455 331.392 36.7628 331.679 37.0554C331.966 37.3452 332.11 37.7187 332.11 38.1761C332.11 38.5511 332.002 38.8864 331.786 39.1818C331.573 39.4773 331.275 39.7102 330.891 39.8807C330.507 40.0511 330.061 40.1364 329.553 40.1364C328.885 40.1364 328.333 39.9915 327.895 39.7017C327.458 39.4119 327.181 38.9886 327.064 38.4318L328.019 38.1932C328.11 38.5455 328.282 38.8097 328.534 38.9858C328.79 39.1619 329.124 39.25 329.536 39.25C330.005 39.25 330.377 39.1506 330.652 38.9517C330.931 38.75 331.07 38.5085 331.07 38.2273C331.07 38 330.99 37.8097 330.831 37.6562C330.672 37.5 330.428 37.3835 330.098 37.3068L329.007 37.0511C328.408 36.9091 327.968 36.6889 327.686 36.3906C327.408 36.0895 327.269 35.7131 327.269 35.2614C327.269 34.892 327.373 34.5653 327.58 34.2812C327.79 33.9972 328.076 33.7741 328.436 33.6122C328.8 33.4503 329.212 33.3693 329.672 33.3693C330.32 33.3693 330.828 33.5114 331.198 33.7955C331.57 34.0795 331.834 34.4545 331.99 34.9205Z" fill="#B8CCB6"/>
<path d="M339.057 73V64.2727H342.006C342.688 64.2727 343.247 64.3892 343.685 64.6222C344.122 64.8523 344.446 65.169 344.656 65.5724C344.866 65.9759 344.972 66.4347 344.972 66.9489C344.972 67.4631 344.866 67.919 344.656 68.3168C344.446 68.7145 344.124 69.027 343.689 69.2543C343.254 69.4787 342.699 69.5909 342.023 69.5909H339.636V68.6364H341.989C342.455 68.6364 342.83 68.5682 343.114 68.4318C343.401 68.2955 343.608 68.1023 343.736 67.8523C343.866 67.5994 343.932 67.2983 343.932 66.9489C343.932 66.5994 343.866 66.294 343.736 66.0327C343.605 65.7713 343.396 65.5696 343.109 65.4276C342.822 65.2827 342.443 65.2102 341.972 65.2102H340.114V73H339.057ZM343.165 69.0795L345.312 73H344.085L341.972 69.0795H343.165ZM349.27 73.1364C348.64 73.1364 348.096 72.9972 347.638 72.7188C347.184 72.4375 346.833 72.0455 346.586 71.5426C346.341 71.0369 346.219 70.4489 346.219 69.7784C346.219 69.108 346.341 68.517 346.586 68.0057C346.833 67.4915 347.176 67.0909 347.617 66.804C348.06 66.5142 348.577 66.3693 349.168 66.3693C349.509 66.3693 349.846 66.4261 350.178 66.5398C350.51 66.6534 350.813 66.8381 351.086 67.0938C351.358 67.3466 351.576 67.6818 351.738 68.0994C351.9 68.517 351.98 69.0312 351.98 69.642V70.0682H346.935V69.1989H350.958C350.958 68.8295 350.884 68.5 350.736 68.2102C350.591 67.9205 350.384 67.6918 350.114 67.5241C349.847 67.3565 349.532 67.2727 349.168 67.2727C348.767 67.2727 348.421 67.3722 348.128 67.571C347.838 67.767 347.615 68.0227 347.459 68.3381C347.303 68.6534 347.225 68.9915 347.225 69.3523V69.9318C347.225 70.4261 347.31 70.8452 347.48 71.1889C347.654 71.5298 347.894 71.7898 348.201 71.9688C348.507 72.1449 348.864 72.233 349.27 72.233C349.534 72.233 349.773 72.196 349.986 72.1222C350.202 72.0455 350.388 71.9318 350.544 71.7812C350.701 71.6278 350.821 71.4375 350.907 71.2102L351.878 71.483C351.776 71.8125 351.604 72.1023 351.363 72.3523C351.121 72.5994 350.823 72.7926 350.468 72.9318C350.113 73.0682 349.713 73.1364 349.27 73.1364ZM354.516 64.2727V73H353.51V64.2727H354.516ZM359.102 73.1364C358.472 73.1364 357.928 72.9972 357.47 72.7188C357.016 72.4375 356.665 72.0455 356.418 71.5426C356.173 71.0369 356.051 70.4489 356.051 69.7784C356.051 69.108 356.173 68.517 356.418 68.0057C356.665 67.4915 357.009 67.0909 357.449 66.804C357.892 66.5142 358.409 66.3693 359 66.3693C359.341 66.3693 359.678 66.4261 360.01 66.5398C360.342 66.6534 360.645 66.8381 360.918 67.0938C361.19 67.3466 361.408 67.6818 361.57 68.0994C361.732 68.517 361.812 69.0312 361.812 69.642V70.0682H356.767V69.1989H360.79C360.79 68.8295 360.716 68.5 360.568 68.2102C360.423 67.9205 360.216 67.6918 359.946 67.5241C359.679 67.3565 359.364 67.2727 359 67.2727C358.599 67.2727 358.253 67.3722 357.96 67.571C357.67 67.767 357.447 68.0227 357.291 68.3381C357.135 68.6534 357.057 68.9915 357.057 69.3523V69.9318C357.057 70.4261 357.142 70.8452 357.312 71.1889C357.486 71.5298 357.726 71.7898 358.033 71.9688C358.339 72.1449 358.696 72.233 359.102 72.233C359.366 72.233 359.605 72.196 359.818 72.1222C360.034 72.0455 360.22 71.9318 360.376 71.7812C360.533 71.6278 360.653 71.4375 360.739 71.2102L361.71 71.483C361.608 71.8125 361.436 72.1023 361.195 72.3523C360.953 72.5994 360.655 72.7926 360.3 72.9318C359.945 73.0682 359.545 73.1364 359.102 73.1364ZM365.268 73.1534C364.854 73.1534 364.477 73.0753 364.139 72.919C363.801 72.7599 363.533 72.5312 363.334 72.233C363.135 71.9318 363.036 71.5682 363.036 71.142C363.036 70.767 363.109 70.4631 363.257 70.2301C363.405 69.9943 363.602 69.8097 363.849 69.6761C364.097 69.5426 364.369 69.4432 364.668 69.3778C364.969 69.3097 365.271 69.2557 365.575 69.2159C365.973 69.1648 366.295 69.1264 366.543 69.1009C366.793 69.0724 366.974 69.0256 367.088 68.9602C367.205 68.8949 367.263 68.7812 367.263 68.6193V68.5852C367.263 68.1648 367.148 67.8381 366.918 67.6051C366.69 67.3722 366.345 67.2557 365.882 67.2557C365.402 67.2557 365.026 67.3608 364.753 67.571C364.48 67.7812 364.288 68.0057 364.178 68.2443L363.223 67.9034C363.393 67.5057 363.621 67.196 363.905 66.9744C364.192 66.75 364.504 66.5937 364.842 66.5057C365.183 66.4148 365.518 66.3693 365.848 66.3693C366.058 66.3693 366.3 66.3949 366.572 66.446C366.848 66.4943 367.114 66.5952 367.369 66.7486C367.628 66.902 367.842 67.1335 368.013 67.4432C368.183 67.7528 368.268 68.1676 368.268 68.6875V73H367.263V72.1136H367.212C367.143 72.2557 367.03 72.4077 366.871 72.5696C366.712 72.7315 366.5 72.8693 366.236 72.983C365.972 73.0966 365.649 73.1534 365.268 73.1534ZM365.422 72.25C365.82 72.25 366.155 72.1719 366.428 72.0156C366.703 71.8594 366.911 71.6577 367.05 71.4105C367.192 71.1634 367.263 70.9034 367.263 70.6307V69.7102C367.22 69.7614 367.126 69.8082 366.982 69.8509C366.839 69.8906 366.675 69.9261 366.487 69.9574C366.303 69.9858 366.122 70.0114 365.946 70.0341C365.773 70.054 365.632 70.071 365.524 70.0852C365.263 70.1193 365.018 70.1747 364.791 70.2514C364.567 70.3253 364.385 70.4375 364.246 70.5881C364.109 70.7358 364.041 70.9375 364.041 71.1932C364.041 71.5426 364.17 71.8068 364.429 71.9858C364.69 72.1619 365.021 72.25 365.422 72.25ZM374.74 67.9205L373.837 68.1761C373.78 68.0256 373.696 67.8793 373.586 67.7372C373.478 67.5923 373.33 67.473 373.142 67.3793C372.955 67.2855 372.715 67.2386 372.422 67.2386C372.022 67.2386 371.688 67.331 371.421 67.5156C371.157 67.6974 371.025 67.929 371.025 68.2102C371.025 68.4602 371.115 68.6577 371.297 68.8026C371.479 68.9474 371.763 69.0682 372.15 69.1648L373.121 69.4034C373.706 69.5455 374.142 69.7628 374.429 70.0554C374.716 70.3452 374.86 70.7187 374.86 71.1761C374.86 71.5511 374.752 71.8864 374.536 72.1818C374.323 72.4773 374.025 72.7102 373.641 72.8807C373.257 73.0511 372.811 73.1364 372.303 73.1364C371.635 73.1364 371.083 72.9915 370.645 72.7017C370.208 72.4119 369.931 71.9886 369.814 71.4318L370.769 71.1932C370.86 71.5455 371.032 71.8097 371.284 71.9858C371.54 72.1619 371.874 72.25 372.286 72.25C372.755 72.25 373.127 72.1506 373.402 71.9517C373.681 71.75 373.82 71.5085 373.82 71.2273C373.82 71 373.74 70.8097 373.581 70.6562C373.422 70.5 373.178 70.3835 372.848 70.3068L371.757 70.0511C371.158 69.9091 370.718 69.6889 370.436 69.3906C370.158 69.0895 370.019 68.7131 370.019 68.2614C370.019 67.892 370.123 67.5653 370.33 67.2812C370.54 66.9972 370.826 66.7741 371.186 66.6122C371.55 66.4503 371.962 66.3693 372.422 66.3693C373.07 66.3693 373.578 66.5114 373.948 66.7955C374.32 67.0795 374.584 67.4545 374.74 67.9205ZM379.118 73.1364C378.487 73.1364 377.943 72.9972 377.486 72.7188C377.031 72.4375 376.68 72.0455 376.433 71.5426C376.189 71.0369 376.067 70.4489 376.067 69.7784C376.067 69.108 376.189 68.517 376.433 68.0057C376.68 67.4915 377.024 67.0909 377.464 66.804C377.908 66.5142 378.425 66.3693 379.016 66.3693C379.357 66.3693 379.693 66.4261 380.026 66.5398C380.358 66.6534 380.661 66.8381 380.933 67.0938C381.206 67.3466 381.423 67.6818 381.585 68.0994C381.747 68.517 381.828 69.0312 381.828 69.642V70.0682H376.783V69.1989H380.805C380.805 68.8295 380.732 68.5 380.584 68.2102C380.439 67.9205 380.232 67.6918 379.962 67.5241C379.695 67.3565 379.379 67.2727 379.016 67.2727C378.615 67.2727 378.268 67.3722 377.976 67.571C377.686 67.767 377.463 68.0227 377.307 68.3381C377.151 68.6534 377.072 68.9915 377.072 69.3523V69.9318C377.072 70.4261 377.158 70.8452 377.328 71.1889C377.501 71.5298 377.741 71.7898 378.048 71.9688C378.355 72.1449 378.712 72.233 379.118 72.233C379.382 72.233 379.621 72.196 379.834 72.1222C380.05 72.0455 380.236 71.9318 380.392 71.7812C380.548 71.6278 380.669 71.4375 380.754 71.2102L381.726 71.483C381.624 71.8125 381.452 72.1023 381.21 72.3523C380.969 72.5994 380.67 72.7926 380.315 72.9318C379.96 73.0682 379.561 73.1364 379.118 73.1364Z" fill="#A1CED7"/>
<path d="M269.278 151.636C269.278 150.562 269.418 149.575 269.696 148.675C269.977 147.771 270.378 146.94 270.898 146.182H271.784C271.58 146.463 271.388 146.81 271.209 147.222C271.033 147.631 270.878 148.081 270.744 148.572C270.611 149.061 270.506 149.567 270.429 150.089C270.355 150.612 270.318 151.128 270.318 151.636C270.318 152.312 270.384 152.999 270.514 153.695C270.645 154.391 270.821 155.037 271.043 155.634C271.264 156.23 271.511 156.716 271.784 157.091H270.898C270.378 156.332 269.977 155.503 269.696 154.602C269.418 153.699 269.278 152.71 269.278 151.636ZM273.251 156V155.233L276.132 152.08C276.47 151.71 276.748 151.389 276.967 151.116C277.186 150.841 277.348 150.582 277.453 150.341C277.561 150.097 277.615 149.841 277.615 149.574C277.615 149.267 277.541 149.001 277.393 148.777C277.248 148.553 277.049 148.379 276.797 148.257C276.544 148.135 276.26 148.074 275.944 148.074C275.609 148.074 275.316 148.143 275.066 148.283C274.819 148.419 274.627 148.611 274.491 148.858C274.358 149.105 274.291 149.395 274.291 149.727H273.285C273.285 149.216 273.403 148.767 273.639 148.381C273.875 147.994 274.196 147.693 274.602 147.477C275.011 147.261 275.47 147.153 275.978 147.153C276.49 147.153 276.943 147.261 277.338 147.477C277.733 147.693 278.042 147.984 278.267 148.351C278.491 148.717 278.603 149.125 278.603 149.574C278.603 149.895 278.545 150.209 278.429 150.516C278.315 150.82 278.116 151.159 277.832 151.534C277.551 151.906 277.16 152.361 276.66 152.898L274.7 154.994V155.062H278.757V156H273.251ZM282.681 151.636C282.681 152.71 282.541 153.699 282.26 154.602C281.981 155.503 281.582 156.332 281.062 157.091H280.176C280.38 156.81 280.571 156.463 280.747 156.051C280.926 155.642 281.082 155.193 281.216 154.705C281.349 154.213 281.453 153.706 281.527 153.183C281.603 152.658 281.642 152.142 281.642 151.636C281.642 150.96 281.576 150.274 281.446 149.578C281.315 148.882 281.139 148.236 280.917 147.639C280.696 147.043 280.449 146.557 280.176 146.182H281.062C281.582 146.94 281.981 147.771 282.26 148.675C282.541 149.575 282.681 150.562 282.681 151.636Z" fill="#B6F1BB"/>
<rect x="425" y="113" width="109" height="25" rx="12.5" fill="#1C211C"/>
<path d="M438.972 121.273V130H437.915V122.381H437.864L435.733 123.795V122.722L437.915 121.273H438.972ZM441.482 130V129.233L444.362 126.08C444.7 125.71 444.979 125.389 445.197 125.116C445.416 124.841 445.578 124.582 445.683 124.341C445.791 124.097 445.845 123.841 445.845 123.574C445.845 123.267 445.771 123.001 445.624 122.777C445.479 122.553 445.28 122.379 445.027 122.257C444.774 122.135 444.49 122.074 444.175 122.074C443.839 122.074 443.547 122.143 443.297 122.283C443.05 122.419 442.858 122.611 442.722 122.858C442.588 123.105 442.521 123.395 442.521 123.727H441.516C441.516 123.216 441.634 122.767 441.869 122.381C442.105 121.994 442.426 121.693 442.832 121.477C443.241 121.261 443.7 121.153 444.209 121.153C444.72 121.153 445.173 121.261 445.568 121.477C445.963 121.693 446.273 121.984 446.497 122.351C446.722 122.717 446.834 123.125 446.834 123.574C446.834 123.895 446.776 124.209 446.659 124.516C446.545 124.82 446.347 125.159 446.062 125.534C445.781 125.906 445.391 126.361 444.891 126.898L442.93 128.994V129.062H446.987V130H441.482ZM453.281 130V130.938H447.827V130H453.281ZM456.469 130.119C455.827 130.119 455.28 129.945 454.828 129.595C454.376 129.243 454.031 128.733 453.793 128.065C453.554 127.395 453.435 126.585 453.435 125.636C453.435 124.693 453.554 123.888 453.793 123.22C454.034 122.55 454.381 122.038 454.832 121.686C455.287 121.331 455.832 121.153 456.469 121.153C457.105 121.153 457.649 121.331 458.101 121.686C458.555 122.038 458.902 122.55 459.141 123.22C459.382 123.888 459.503 124.693 459.503 125.636C459.503 126.585 459.384 127.395 459.145 128.065C458.906 128.733 458.561 129.243 458.109 129.595C457.658 129.945 457.111 130.119 456.469 130.119ZM456.469 129.182C457.105 129.182 457.599 128.875 457.952 128.261C458.304 127.648 458.48 126.773 458.48 125.636C458.48 124.881 458.399 124.237 458.237 123.706C458.078 123.175 457.848 122.77 457.547 122.491C457.249 122.213 456.889 122.074 456.469 122.074C455.838 122.074 455.345 122.385 454.99 123.007C454.635 123.626 454.457 124.503 454.457 125.636C454.457 126.392 454.537 127.034 454.696 127.562C454.855 128.091 455.084 128.493 455.382 128.768C455.683 129.044 456.045 129.182 456.469 129.182ZM464.19 121.273V130H463.134V122.381H463.082L460.952 123.795V122.722L463.134 121.273H464.19Z" fill="#9BD4A0"/>
<path d="M471.234 130V130.938H465.78V130H471.234ZM510.949 130V130.938H505.495V130H510.949Z" fill="#B6F1BB"/>
<path d="M474.422 130.119C473.78 130.119 473.233 129.945 472.781 129.595C472.33 129.243 471.984 128.733 471.746 128.065C471.507 127.395 471.388 126.585 471.388 125.636C471.388 124.693 471.507 123.888 471.746 123.22C471.987 122.55 472.334 122.038 472.786 121.686C473.24 121.331 473.786 121.153 474.422 121.153C475.058 121.153 475.602 121.331 476.054 121.686C476.509 122.038 476.855 122.55 477.094 123.22C477.335 123.888 477.456 124.693 477.456 125.636C477.456 126.585 477.337 127.395 477.098 128.065C476.859 128.733 476.514 129.243 476.062 129.595C475.611 129.945 475.064 130.119 474.422 130.119ZM474.422 129.182C475.058 129.182 475.553 128.875 475.905 128.261C476.257 127.648 476.433 126.773 476.433 125.636C476.433 124.881 476.352 124.237 476.19 123.706C476.031 123.175 475.801 122.77 475.5 122.491C475.202 122.213 474.842 122.074 474.422 122.074C473.791 122.074 473.298 122.385 472.943 123.007C472.588 123.626 472.411 124.503 472.411 125.636C472.411 126.392 472.49 127.034 472.649 127.562C472.808 128.091 473.037 128.493 473.335 128.768C473.636 129.044 473.999 129.182 474.422 129.182ZM479.075 130V129.233L481.956 126.08C482.294 125.71 482.572 125.389 482.791 125.116C483.01 124.841 483.172 124.582 483.277 124.341C483.385 124.097 483.439 123.841 483.439 123.574C483.439 123.267 483.365 123.001 483.217 122.777C483.072 122.553 482.874 122.379 482.621 122.257C482.368 122.135 482.084 122.074 481.768 122.074C481.433 122.074 481.141 122.143 480.891 122.283C480.643 122.419 480.452 122.611 480.315 122.858C480.182 123.105 480.115 123.395 480.115 123.727H479.109C479.109 123.216 479.227 122.767 479.463 122.381C479.699 121.994 480.02 121.693 480.426 121.477C480.835 121.261 481.294 121.153 481.803 121.153C482.314 121.153 482.767 121.261 483.162 121.477C483.557 121.693 483.866 121.984 484.091 122.351C484.315 122.717 484.428 123.125 484.428 123.574C484.428 123.895 484.369 124.209 484.253 124.516C484.139 124.82 483.94 125.159 483.656 125.534C483.375 125.906 482.984 126.361 482.484 126.898L480.524 128.994V129.062H484.581V130H479.075ZM490.875 130V130.938H485.42V130H490.875ZM494.062 130.119C493.42 130.119 492.874 129.945 492.422 129.595C491.97 129.243 491.625 128.733 491.386 128.065C491.148 127.395 491.028 126.585 491.028 125.636C491.028 124.693 491.148 123.888 491.386 123.22C491.628 122.55 491.974 122.038 492.426 121.686C492.881 121.331 493.426 121.153 494.062 121.153C494.699 121.153 495.243 121.331 495.695 121.686C496.149 122.038 496.496 122.55 496.734 123.22C496.976 123.888 497.097 124.693 497.097 125.636C497.097 126.585 496.977 127.395 496.739 128.065C496.5 128.733 496.155 129.243 495.703 129.595C495.251 129.945 494.705 130.119 494.062 130.119ZM494.062 129.182C494.699 129.182 495.193 128.875 495.545 128.261C495.898 127.648 496.074 126.773 496.074 125.636C496.074 124.881 495.993 124.237 495.831 123.706C495.672 123.175 495.442 122.77 495.141 122.491C494.842 122.213 494.483 122.074 494.062 122.074C493.432 122.074 492.939 122.385 492.584 123.007C492.229 123.626 492.051 124.503 492.051 125.636C492.051 126.392 492.131 127.034 492.29 127.562C492.449 128.091 492.678 128.493 492.976 128.768C493.277 129.044 493.639 129.182 494.062 129.182ZM498.511 128.21V127.341L502.347 121.273H502.977V122.619H502.551L499.653 127.205V127.273H504.818V128.21H498.511ZM502.619 130V127.946V127.541V121.273H503.625V130H502.619Z" fill="#B8CCB6"/>
<path d="M514.137 130.119C513.495 130.119 512.948 129.945 512.496 129.595C512.044 129.243 511.699 128.733 511.461 128.065C511.222 127.395 511.103 126.585 511.103 125.636C511.103 124.693 511.222 123.888 511.461 123.22C511.702 122.55 512.049 122.038 512.5 121.686C512.955 121.331 513.5 121.153 514.137 121.153C514.773 121.153 515.317 121.331 515.769 121.686C516.223 122.038 516.57 122.55 516.809 123.22C517.05 123.888 517.171 124.693 517.171 125.636C517.171 126.585 517.051 127.395 516.813 128.065C516.574 128.733 516.229 129.243 515.777 129.595C515.326 129.945 514.779 130.119 514.137 130.119ZM514.137 129.182C514.773 129.182 515.267 128.875 515.62 128.261C515.972 127.648 516.148 126.773 516.148 125.636C516.148 124.881 516.067 124.237 515.905 123.706C515.746 123.175 515.516 122.77 515.215 122.491C514.917 122.213 514.557 122.074 514.137 122.074C513.506 122.074 513.013 122.385 512.658 123.007C512.303 123.626 512.125 124.503 512.125 125.636C512.125 126.392 512.205 127.034 512.364 127.562C512.523 128.091 512.752 128.493 513.05 128.768C513.351 129.044 513.713 129.182 514.137 129.182ZM521.858 121.273V130H520.801V122.381H520.75L518.62 123.795V122.722L520.801 121.273H521.858Z" fill="#A1CED7"/>
<path d="M416.354 125.354C416.549 125.158 416.549 124.842 416.354 124.646L413.172 121.464C412.976 121.269 412.66 121.269 412.464 121.464C412.269 121.66 412.269 121.976 412.464 122.172L415.293 125L412.464 127.828C412.269 128.024 412.269 128.34 412.464 128.536C412.66 128.731 412.976 128.731 413.172 128.536L416.354 125.354ZM385 125L385 125.5L416 125.5L416 125L416 124.5L385 124.5L385 125Z" fill="#C1C9BE"/>
</svg>
